<svg width="102" height="101" viewBox="0 0 102 101" fill="none" xmlns="http://www.w3.org/2000/svg">
<rect x="0.5" width="101" height="101" rx="50.5" fill="white"/>
<path d="M38.8327 32.3337C38.8327 29.7437 36.756 27.667 34.166 27.667C31.576 27.667 29.4993 29.7437 29.4993 32.3337C29.4993 34.9237 31.576 37.0003 34.166 37.0003C36.756 37.0003 38.8327 34.9237 38.8327 32.3337ZM46.276 33.5003C45.3193 33.5003 44.5027 34.0837 44.1294 34.9703C43.6135 36.2616 42.7214 37.3681 41.5688 38.1462C40.4163 38.9242 39.0566 39.338 37.666 39.3337H30.666C28.7293 39.3337 27.166 40.897 27.166 42.8337V48.667H41.166V43.3937C42.8086 42.8756 44.3147 41.9971 45.5742 40.8223C46.8338 39.6476 47.8149 38.2062 48.446 36.6037C49.0527 35.1103 47.886 33.5003 46.276 33.5003ZM66.8327 62.667C69.4227 62.667 71.4994 60.5903 71.4994 58.0003C71.4994 55.4103 69.4227 53.3337 66.8327 53.3337C64.2427 53.3337 62.166 55.4103 62.166 58.0003C62.166 60.5903 64.2427 62.667 66.8327 62.667ZM70.3327 65.0003H63.3327C60.3927 65.0003 57.896 63.2037 56.8694 60.637C56.7017 60.2039 56.4069 59.8318 56.0238 59.5694C55.6406 59.307 55.1871 59.1668 54.7227 59.167C53.1127 59.167 51.946 60.777 52.5294 62.2703C53.164 63.8707 54.1464 65.3101 55.4054 66.4844C56.6644 67.6587 58.1687 68.5385 59.8093 69.0603V74.3337H73.8094V68.5003C73.8327 66.5637 72.2694 65.0003 70.3327 65.0003ZM62.7494 48.877C62.7494 48.877 62.7494 48.8537 62.7727 48.877C61.5533 49.1915 60.4404 49.8271 59.5499 50.7176C58.6595 51.6081 58.0239 52.7209 57.7094 53.9403V53.917C57.4527 54.9203 56.5194 55.667 55.4227 55.667C54.1394 55.667 53.0893 54.617 53.0893 53.3337C53.0893 53.217 53.136 53.007 53.136 53.007C53.6324 50.8821 54.7159 48.9395 56.263 47.4007C57.8101 45.8618 59.7585 44.7887 61.886 44.3037C61.9794 44.3037 62.0727 44.2803 62.166 44.2803C63.4494 44.2803 64.4994 45.3303 64.4994 46.6137C64.4994 47.687 63.7527 48.6203 62.7494 48.877ZM64.4994 37.1403C64.4994 38.3303 63.636 39.287 62.4927 39.4503C55.0493 40.3603 49.1927 46.2403 48.2827 53.6837C48.186 54.2587 47.8779 54.7769 47.4188 55.1365C46.9597 55.4961 46.3828 55.6712 45.8013 55.6274C45.2198 55.5835 44.6757 55.324 44.2757 54.8996C43.8757 54.4753 43.6487 53.9167 43.6394 53.3337V53.1237C44.806 43.5103 52.4827 35.9037 62.1194 34.807H62.1427C63.4494 34.807 64.4994 35.857 64.4994 37.1403Z" fill="url(#paint0_linear_27_52)"/>
<defs>
<linearGradient id="paint0_linear_27_52" x1="53.1532" y1="27.667" x2="52.7085" y2="74.3337" gradientUnits="userSpaceOnUse">
<stop stop-color="#890E4F"/>
<stop offset="1" stop-color="#D92584" stop-opacity="0.6"/>
</linearGradient>
</defs>
</svg>
