<svg width="102" height="101" viewBox="0 0 102 101" fill="none" xmlns="http://www.w3.org/2000/svg">
<rect x="0.5" width="101" height="101" rx="50.5" fill="white"/>
<path d="M52.1406 47.9844L49.7969 50.132C46.625 53.0391 43.0156 51.0625 41.8516 49.7969C39.75 47.5 39.9141 43.9453 42.1953 41.8516L48.5859 36H48.0703C43.5547 36 39.2109 37.793 36.0156 40.9844L28.5 41.0078C27.125 41.0078 26 42.132 26 43.5062V55.9906C26 57.3648 27.125 58.4937 28.4297 58.4937L37.3594 58.4891L44.4297 64.8812C46.5781 66.6289 49.7227 66.2961 51.4609 64.1582L52.8766 65.3496C54.1172 66.2949 55.9531 66.1699 56.9688 64.9301L59.4203 61.9144L59.8402 62.2659C60.9144 63.1253 62.487 62.9692 63.3558 61.895L64.1039 60.9708C64.9695 59.9005 64.8054 58.3341 63.7366 57.4661L52.1406 47.9844ZM73.5 41.0078L66 40.998C62.7984 37.798 58.4562 36.0073 53.9297 36.0073L53.2578 36C52.6328 36 52.0375 36.2498 51.5688 36.6694L43.8906 43.6797L43.875 43.7109C42.5625 44.9453 42.5938 46.8828 43.7031 48.0859C44.4551 48.9062 46.4375 49.775 48.0883 48.3008C48.0883 48.291 48.1078 48.291 48.1176 48.2812L54.3676 42.5703C54.8754 42.1116 55.666 42.1409 56.1348 42.6484C56.6035 43.1559 56.5645 43.9469 56.0566 44.4156L54.016 46.2805L65.391 55.507C66.3379 56.2877 66.9145 57.3422 67.1191 58.4742L73.5 58.4766C74.875 58.4766 76 57.3531 76 55.9781V43.5078C76 42.125 74.8828 41.0078 73.5 41.0078Z" fill="url(#paint0_linear_28_115)"/>
<defs>
<linearGradient id="paint0_linear_28_115" x1="53.8571" y1="36" x2="53.6857" y2="66.0054" gradientUnits="userSpaceOnUse">
<stop stop-color="#890E4F"/>
<stop offset="1" stop-color="#D92584" stop-opacity="0.6"/>
</linearGradient>
</defs>
</svg>
