<svg width="20" height="20" viewBox="0 0 20 20" fill="none" xmlns="http://www.w3.org/2000/svg">
<path d="M12.3575 5.25167C11.7425 5.22333 11.5575 5.21833 10 5.21833C8.4425 5.21833 8.25833 5.22417 7.64333 5.25167C6.06083 5.32417 5.32417 6.07333 5.25167 7.64333C5.22417 8.25833 5.2175 8.4425 5.2175 10C5.2175 11.5575 5.22417 11.7417 5.25167 12.3575C5.32417 13.9233 6.0575 14.6767 7.64333 14.7492C8.2575 14.7767 8.4425 14.7833 10 14.7833C11.5583 14.7833 11.7425 14.7775 12.3575 14.7492C13.94 14.6775 14.6758 13.9258 14.7492 12.3575C14.7767 11.7425 14.7825 11.5575 14.7825 10C14.7825 8.4425 14.7767 8.25833 14.7492 7.64333C14.6758 6.07417 13.9383 5.32417 12.3575 5.25167ZM10 12.9958C8.34583 12.9958 7.00417 11.655 7.00417 10C7.00417 8.34583 8.34583 7.005 10 7.005C11.6542 7.005 12.9958 8.34583 12.9958 10C12.9958 11.6542 11.6542 12.9958 10 12.9958ZM13.1142 7.58667C12.7275 7.58667 12.4142 7.27333 12.4142 6.88667C12.4142 6.5 12.7275 6.18667 13.1142 6.18667C13.5008 6.18667 13.8142 6.5 13.8142 6.88667C13.8142 7.2725 13.5008 7.58667 13.1142 7.58667ZM11.9442 10C11.9442 11.0742 11.0733 11.9442 10 11.9442C8.92667 11.9442 8.05583 11.0742 8.05583 10C8.05583 8.92583 8.92667 8.05583 10 8.05583C11.0733 8.05583 11.9442 8.92583 11.9442 10ZM10 0C4.4775 0 0 4.4775 0 10C0 15.5225 4.4775 20 10 20C15.5225 20 20 15.5225 20 10C20 4.4775 15.5225 0 10 0ZM15.7983 12.405C15.7025 14.5258 14.5217 15.7008 12.4058 15.7983C11.7833 15.8267 11.5842 15.8333 10 15.8333C8.41583 15.8333 8.2175 15.8267 7.595 15.7983C5.475 15.7008 4.29917 14.5242 4.20167 12.405C4.17333 11.7833 4.16667 11.5842 4.16667 10C4.16667 8.41583 4.17333 8.2175 4.20167 7.595C4.29917 5.475 5.47583 4.29917 7.595 4.2025C8.2175 4.17333 8.41583 4.16667 10 4.16667C11.5842 4.16667 11.7833 4.17333 12.4058 4.2025C14.5267 4.3 15.7033 5.47917 15.7983 7.595C15.8267 8.2175 15.8333 8.41583 15.8333 10C15.8333 11.5842 15.8267 11.7833 15.7983 12.405Z" fill="white"/>
</svg>
