<svg width="65" height="65" viewBox="0 0 65 65" fill="none" xmlns="http://www.w3.org/2000/svg">
<path d="M4.0625 28.4375H38.5938V37.5781H40.625V17.2656C40.625 16.4575 40.304 15.6826 39.7326 15.1112C39.1612 14.5398 38.3862 14.2188 37.5781 14.2188H37.3913C37.5373 13.825 37.5989 13.4049 37.5721 12.9858C37.5453 12.5667 37.4307 12.1579 37.2357 11.786C37.0407 11.414 36.7697 11.0872 36.4403 10.8267C36.1109 10.5663 35.7303 10.378 35.3234 10.2741C35.5112 9.8122 35.5823 9.31121 35.5306 8.81533C35.4789 8.31945 35.3058 7.84394 35.0268 7.43078C34.7477 7.01761 34.3712 6.67952 33.9306 6.44634C33.4899 6.21315 32.9986 6.09206 32.5 6.09375H24.375C23.6371 6.09244 22.9239 6.35961 22.3684 6.84542C21.8129 7.33123 21.4532 8.00251 21.3562 8.73405C21.2592 9.46558 21.4317 10.2074 21.8414 10.8212C22.2511 11.4349 22.87 11.8787 23.5828 12.0697C23.298 12.7554 23.285 13.5238 23.5462 14.2188H15.2344V7.10938C15.2344 6.84001 15.1274 6.58169 14.9369 6.39122C14.7464 6.20075 14.4881 6.09375 14.2188 6.09375V5.07812C14.2188 4.27004 13.8977 3.49506 13.3263 2.92366C12.7549 2.35226 11.98 2.03125 11.1719 2.03125C10.3638 2.03125 9.58881 2.35226 9.01741 2.92366C8.44601 3.49506 8.125 4.27004 8.125 5.07812V6.09375C7.85564 6.09375 7.59731 6.20075 7.40685 6.39122C7.21638 6.58169 7.10938 6.84001 7.10938 7.10938V14.2188H5.07812C4.27004 14.2188 3.49506 14.5398 2.92366 15.1112C2.35226 15.6826 2.03125 16.4575 2.03125 17.2656V34.5069H4.0625V28.4375ZM24.375 8.125H32.5C32.7694 8.125 33.0277 8.232 33.2182 8.42247C33.4086 8.61294 33.5156 8.87126 33.5156 9.14062C33.5156 9.40999 33.4086 9.66831 33.2182 9.85878C33.0277 10.0492 32.7694 10.1562 32.5 10.1562H24.375C24.1056 10.1562 23.8473 10.0492 23.6568 9.85878C23.4664 9.66831 23.3594 9.40999 23.3594 9.14062C23.3594 8.87126 23.4664 8.61294 23.6568 8.42247C23.8473 8.232 24.1056 8.125 24.375 8.125ZM25.3906 13.2031C25.3906 12.9338 25.4976 12.6754 25.6881 12.485C25.8786 12.2945 26.1369 12.1875 26.4062 12.1875H34.5312C34.8006 12.1875 35.0589 12.2945 35.2494 12.485C35.4399 12.6754 35.5469 12.9338 35.5469 13.2031C35.5469 13.4725 35.4399 13.7308 35.2494 13.9213C35.0589 14.1117 34.8006 14.2188 34.5312 14.2188H26.4062C26.1369 14.2188 25.8786 14.1117 25.6881 13.9213C25.4976 13.7308 25.3906 13.4725 25.3906 13.2031ZM10.1562 5.07812C10.1562 4.80876 10.2633 4.55044 10.4537 4.35997C10.6442 4.1695 10.9025 4.0625 11.1719 4.0625C11.4412 4.0625 11.6996 4.1695 11.89 4.35997C12.0805 4.55044 12.1875 4.80876 12.1875 5.07812V6.09375H10.1562V5.07812ZM9.14062 8.125H13.2031V14.2188H9.14062V8.125ZM5.07812 16.25H37.5781C37.8475 16.25 38.1058 16.357 38.2963 16.5475C38.4867 16.7379 38.5938 16.9963 38.5938 17.2656V26.4062H4.0625V17.2656C4.0625 16.9963 4.1695 16.7379 4.35997 16.5475C4.55044 16.357 4.80876 16.25 5.07812 16.25Z" fill="url(#paint0_linear_165_30)"/>
<path d="M32.5 62.969V60.9377H5.07812C4.80876 60.9377 4.55044 60.8307 4.35997 60.6402C4.1695 60.4498 4.0625 60.1915 4.0625 59.9221V36.6206H2.03125V59.9221C2.03125 60.7302 2.35226 61.5052 2.92366 62.0766C3.49506 62.648 4.27004 62.969 5.07812 62.969H32.5Z" fill="url(#paint1_linear_165_30)"/>
<path d="M7.10938 24.375H15.2344C15.5037 24.375 15.7621 24.268 15.9525 24.0775C16.143 23.8871 16.25 23.6287 16.25 23.3594V19.2969C16.25 19.0275 16.143 18.7692 15.9525 18.5787C15.7621 18.3883 15.5037 18.2812 15.2344 18.2812H7.10938C6.84001 18.2812 6.58169 18.3883 6.39122 18.5787C6.20075 18.7692 6.09375 19.0275 6.09375 19.2969V23.3594C6.09375 23.6287 6.20075 23.8871 6.39122 24.0775C6.58169 24.268 6.84001 24.375 7.10938 24.375ZM8.125 20.3125H14.2188V22.3438H8.125V20.3125Z" fill="url(#paint2_linear_165_30)"/>
<path d="M32.5 18.2812H30.4688V20.3125H32.5V18.2812Z" fill="url(#paint3_linear_165_30)"/>
<path d="M32.5 22.3438H30.4688V24.375H32.5V22.3438Z" fill="url(#paint4_linear_165_30)"/>
<path d="M36.5625 18.2812H34.5312V20.3125H36.5625V18.2812Z" fill="url(#paint5_linear_165_30)"/>
<path d="M36.5625 22.3438H34.5312V24.375H36.5625V22.3438Z" fill="url(#paint6_linear_165_30)"/>
<path d="M21.3281 24.375C21.9307 24.375 22.5198 24.1963 23.0209 23.8615C23.5219 23.5267 23.9125 23.0509 24.1431 22.4941C24.3737 21.9374 24.434 21.3247 24.3165 20.7337C24.1989 20.1427 23.9087 19.5998 23.4826 19.1737C23.0565 18.7475 22.5136 18.4574 21.9225 18.3398C21.3315 18.2222 20.7189 18.2826 20.1621 18.5132C19.6054 18.7438 19.1295 19.1343 18.7947 19.6354C18.4599 20.1364 18.2812 20.7255 18.2812 21.3281C18.2813 22.1362 18.6023 22.9112 19.1737 23.4826C19.7451 24.054 20.52 24.375 21.3281 24.375ZM21.3281 20.3125C21.529 20.3125 21.7254 20.3721 21.8924 20.4837C22.0594 20.5953 22.1896 20.7539 22.2664 20.9395C22.3433 21.125 22.3634 21.3293 22.3242 21.5263C22.285 21.7233 22.1883 21.9042 22.0463 22.0463C21.9042 22.1883 21.7233 22.285 21.5263 22.3242C21.3293 22.3634 21.125 22.3433 20.9395 22.2664C20.7539 22.1896 20.5953 22.0594 20.4837 21.8924C20.3721 21.7254 20.3125 21.529 20.3125 21.3281C20.3125 21.0588 20.4195 20.8004 20.61 20.61C20.8004 20.4195 21.0588 20.3125 21.3281 20.3125Z" fill="url(#paint7_linear_165_30)"/>
<path d="M28.4375 18.2812H26.4062V20.3125H28.4375V18.2812Z" fill="url(#paint8_linear_165_30)"/>
<path d="M28.4375 22.3438H26.4062V24.375H28.4375V22.3438Z" fill="url(#paint9_linear_165_30)"/>
<path d="M17.6717 51.9433C16.1059 51.1472 14.8371 49.8695 14.052 48.2982C13.9933 48.1777 13.9113 48.0701 13.8107 47.9815C13.7102 47.8929 13.5931 47.8251 13.4663 47.7819C13.3394 47.7387 13.2052 47.7211 13.0715 47.73C12.9378 47.739 12.8072 47.7743 12.6872 47.8339C12.5672 47.8935 12.4602 47.9763 12.3723 48.0775C12.2844 48.1787 12.2175 48.2963 12.1753 48.4234C12.133 48.5506 12.1164 48.6849 12.1263 48.8185C12.1362 48.9522 12.1725 49.0825 12.233 49.2021C13.2136 51.1652 14.7986 52.7616 16.7546 53.7562C16.9938 53.8677 17.2671 53.8817 17.5165 53.7952C17.7659 53.7088 17.9718 53.5286 18.0906 53.2929C18.2095 53.0572 18.2319 52.7845 18.1531 52.5326C18.0743 52.2807 17.9006 52.0693 17.6686 51.9433H17.6717Z" fill="url(#paint10_linear_165_30)"/>
<path d="M25.7054 35.5204C25.4656 35.422 25.1973 35.419 24.9555 35.512C24.7136 35.6049 24.5164 35.7868 24.4042 36.0205C24.2921 36.2541 24.2735 36.5217 24.3522 36.7686C24.431 37.0155 24.6012 37.223 24.8279 37.3485C26.7703 38.2833 28.2664 39.9457 28.9919 41.9757C29.087 42.2223 29.2746 42.4222 29.5147 42.5328C29.7548 42.6434 30.0286 42.656 30.2779 42.5679C30.5272 42.4798 30.7323 42.298 30.8496 42.0612C30.967 41.8243 30.9874 41.5509 30.9064 41.2993C30.0004 38.7638 28.1317 36.6875 25.7054 35.5204Z" fill="url(#paint11_linear_165_30)"/>
<path d="M61.9531 42.6563H58.9062C58.9078 42.0299 58.7159 41.4184 58.3567 40.9052C57.9976 40.392 57.4887 40.0023 56.8997 39.7892C56.3107 39.5762 55.6703 39.5502 55.0659 39.7149C54.4616 39.8796 53.9229 40.2269 53.5234 40.7093C52.814 40.5364 52.0657 40.6315 51.4221 40.9764C51.1019 40.2662 50.5835 39.6635 49.9292 39.2408C49.2748 38.818 48.5124 38.5931 47.7333 38.5931C46.9543 38.5931 46.1918 38.818 45.5375 39.2408C44.8831 39.6635 44.3647 40.2662 44.0446 40.9764C43.401 40.6315 42.6527 40.5364 41.9433 40.7093C41.5436 40.2277 41.005 39.8811 40.401 39.7169C39.7971 39.5527 39.1572 39.5789 38.5686 39.7918C37.9801 40.0048 37.4716 40.3941 37.1126 40.9068C36.7535 41.4194 36.5614 42.0304 36.5625 42.6563H35.3874C34.9095 39.3451 33.2793 36.3085 30.7837 34.0806C28.288 31.8526 25.0867 30.576 21.7428 30.4752C18.3988 30.3744 15.1264 31.456 12.5011 33.5296C9.87586 35.6033 8.06583 38.5362 7.3894 41.8126C6.71298 45.0889 7.21348 48.4989 8.80287 51.4427C10.3923 54.3865 12.9688 56.6756 16.0792 57.9074C19.1896 59.1392 22.6348 59.2347 25.8088 58.1773C28.9827 57.1199 31.6822 54.9771 33.4323 52.126L34.5373 62.0649C34.5648 62.3134 34.683 62.543 34.8693 62.7098C35.0556 62.8766 35.2968 62.9688 35.5468 62.9688H52.8775V60.9375H36.4609L35.039 48.1813V48.1742L34.6501 44.6875H36.5625V53.8282C36.5625 54.0975 36.6695 54.3559 36.8599 54.5463C37.0504 54.7368 37.3087 54.8438 37.5781 54.8438H41.6406C41.91 54.8438 42.1683 54.7368 42.3588 54.5463C42.5492 54.3559 42.6562 54.0975 42.6562 53.8282V50.7813H44.6875C44.9568 50.7813 45.2152 50.6743 45.4056 50.4838C45.5961 50.2934 45.7031 50.035 45.7031 49.7657V44.6875H49.7656V49.7657C49.7656 50.035 49.8726 50.2934 50.0631 50.4838C50.2535 50.6743 50.5119 50.7813 50.7812 50.7813H52.8125V53.8282C52.8125 54.0975 52.9195 54.3559 53.1099 54.5463C53.3004 54.7368 53.5587 54.8438 53.8281 54.8438H57.8906C58.16 54.8438 58.4183 54.7368 58.6088 54.5463C58.7992 54.3559 58.9062 54.0975 58.9062 53.8282V44.6875H60.8186L59.0078 60.9375H54.8437V62.9688H59.9218C60.1719 62.9688 60.4131 62.8766 60.5994 62.7098C60.7857 62.543 60.9039 62.3134 60.9314 62.0649L62.9626 43.7836C62.9783 43.6417 62.9639 43.498 62.9204 43.362C62.8768 43.226 62.805 43.1008 62.7098 42.9944C62.6145 42.888 62.4979 42.8029 62.3675 42.7446C62.2371 42.6864 62.0959 42.6563 61.9531 42.6563ZM21.3281 56.875C19.0028 56.8756 16.7259 56.211 14.7661 54.9596C12.8062 53.7082 11.2453 51.9222 10.2675 49.8125C9.28966 47.7028 8.93579 45.3574 9.24761 43.0532C9.55944 40.7489 10.524 38.5819 12.0273 36.808C13.5307 35.034 15.5102 33.7272 17.7321 33.0417C19.954 32.3562 22.3257 32.3206 24.5672 32.9392C26.8087 33.5578 28.8265 34.8047 30.3823 36.5328C31.9382 38.2608 32.9673 40.3979 33.348 42.6918C33.1227 42.7232 32.9148 42.8307 32.759 42.9965C32.6637 43.1029 32.5919 43.2281 32.5484 43.3641C32.5048 43.5001 32.4904 43.6437 32.5061 43.7857L32.9966 48.1996C32.2356 50.7037 30.6916 52.8977 28.5913 54.4592C26.491 56.0208 23.9453 56.8675 21.3281 56.875ZM43.6718 48.75H41.6406C41.3712 48.75 41.1129 48.857 40.9224 49.0475C40.732 49.238 40.625 49.4963 40.625 49.7657V52.8125H38.5937V42.6563C38.5985 42.4197 38.6857 42.1922 38.8403 42.013C38.995 41.8339 39.2073 41.7144 39.4407 41.6751C39.674 41.6359 39.9138 41.6793 40.1185 41.798C40.3232 41.9167 40.4801 42.1032 40.562 42.3252C40.6133 42.4715 40.6974 42.604 40.8079 42.7128C40.9183 42.8215 41.0522 42.9036 41.1992 42.9526C41.3463 43.0016 41.5026 43.0163 41.6562 42.9956C41.8098 42.9749 41.9566 42.9192 42.0854 42.833C42.238 42.7293 42.416 42.6692 42.6002 42.659C42.7844 42.6488 42.9679 42.689 43.131 42.7752C43.2941 42.8615 43.4306 42.9905 43.5259 43.1485C43.6212 43.3065 43.6716 43.4874 43.6718 43.6719V48.75ZM47.7343 40.625C48.2731 40.625 48.7897 40.839 49.1707 41.22C49.5516 41.6009 49.7656 42.1176 49.7656 42.6563H45.7031C45.7031 42.1176 45.9171 41.6009 46.298 41.22C46.679 40.839 47.1956 40.625 47.7343 40.625ZM56.875 52.8125H54.8437V49.7657C54.8437 49.4963 54.7367 49.238 54.5463 49.0475C54.3558 48.857 54.0975 48.75 53.8281 48.75H51.7968V43.6719C51.7968 43.4877 51.8469 43.307 51.9417 43.1491C52.0364 42.9912 52.1724 42.862 52.3349 42.7754C52.4975 42.6888 52.6806 42.648 52.8645 42.6575C53.0484 42.6669 53.2263 42.7262 53.3792 42.8289C53.5081 42.9162 53.6554 42.9726 53.8096 42.9939C53.9638 43.0152 54.1208 43.0007 54.2686 42.9516C54.4163 42.9025 54.5508 42.8201 54.6616 42.7108C54.7724 42.6015 54.8566 42.4682 54.9077 42.3211C54.9902 42.0995 55.1475 41.9136 55.3524 41.7955C55.5573 41.6774 55.797 41.6345 56.0301 41.6742C56.2632 41.714 56.4752 41.8338 56.6294 42.0131C56.7837 42.1923 56.8705 42.4198 56.875 42.6563V52.8125Z" fill="url(#paint12_linear_165_30)"/>
<defs>
<linearGradient id="paint0_linear_165_30" x1="23.5335" y1="2.03125" x2="23.2217" y2="37.5786" gradientUnits="userSpaceOnUse">
<stop stop-color="#890E4F"/>
<stop offset="1" stop-color="#D92584" stop-opacity="0.6"/>
</linearGradient>
<linearGradient id="paint1_linear_165_30" x1="19.0067" y1="36.6206" x2="18.7897" y2="62.9696" gradientUnits="userSpaceOnUse">
<stop stop-color="#890E4F"/>
<stop offset="1" stop-color="#D92584" stop-opacity="0.6"/>
</linearGradient>
<linearGradient id="paint2_linear_165_30" x1="11.7522" y1="18.2812" x2="11.7174" y2="24.3754" gradientUnits="userSpaceOnUse">
<stop stop-color="#890E4F"/>
<stop offset="1" stop-color="#D92584" stop-opacity="0.6"/>
</linearGradient>
<linearGradient id="paint3_linear_165_30" x1="31.6004" y1="18.2812" x2="31.5811" y2="20.3125" gradientUnits="userSpaceOnUse">
<stop stop-color="#890E4F"/>
<stop offset="1" stop-color="#D92584" stop-opacity="0.6"/>
</linearGradient>
<linearGradient id="paint4_linear_165_30" x1="31.6004" y1="22.3437" x2="31.5811" y2="24.375" gradientUnits="userSpaceOnUse">
<stop stop-color="#890E4F"/>
<stop offset="1" stop-color="#D92584" stop-opacity="0.6"/>
</linearGradient>
<linearGradient id="paint5_linear_165_30" x1="35.6629" y1="18.2812" x2="35.6436" y2="20.3125" gradientUnits="userSpaceOnUse">
<stop stop-color="#890E4F"/>
<stop offset="1" stop-color="#D92584" stop-opacity="0.6"/>
</linearGradient>
<linearGradient id="paint6_linear_165_30" x1="35.6629" y1="22.3437" x2="35.6436" y2="24.375" gradientUnits="userSpaceOnUse">
<stop stop-color="#890E4F"/>
<stop offset="1" stop-color="#D92584" stop-opacity="0.6"/>
</linearGradient>
<linearGradient id="paint7_linear_165_30" x1="21.6763" y1="18.2812" x2="21.6183" y2="24.375" gradientUnits="userSpaceOnUse">
<stop stop-color="#890E4F"/>
<stop offset="1" stop-color="#D92584" stop-opacity="0.6"/>
</linearGradient>
<linearGradient id="paint8_linear_165_30" x1="27.5379" y1="18.2812" x2="27.5186" y2="20.3125" gradientUnits="userSpaceOnUse">
<stop stop-color="#890E4F"/>
<stop offset="1" stop-color="#D92584" stop-opacity="0.6"/>
</linearGradient>
<linearGradient id="paint9_linear_165_30" x1="27.5379" y1="22.3437" x2="27.5186" y2="24.375" gradientUnits="userSpaceOnUse">
<stop stop-color="#890E4F"/>
<stop offset="1" stop-color="#D92584" stop-opacity="0.6"/>
</linearGradient>
<linearGradient id="paint10_linear_165_30" x1="15.5086" y1="47.7278" x2="15.4499" y2="53.8513" gradientUnits="userSpaceOnUse">
<stop stop-color="#890E4F"/>
<stop offset="1" stop-color="#D92584" stop-opacity="0.6"/>
</linearGradient>
<linearGradient id="paint11_linear_165_30" x1="28.0098" y1="35.4443" x2="27.9359" y2="42.6258" gradientUnits="userSpaceOnUse">
<stop stop-color="#890E4F"/>
<stop offset="1" stop-color="#D92584" stop-opacity="0.6"/>
</linearGradient>
<linearGradient id="paint12_linear_165_30" x1="38.225" y1="30.4687" x2="38.0449" y2="62.9707" gradientUnits="userSpaceOnUse">
<stop stop-color="#890E4F"/>
<stop offset="1" stop-color="#D92584" stop-opacity="0.6"/>
</linearGradient>
</defs>
</svg>
