<svg width="102" height="101" viewBox="0 0 102 101" fill="none" xmlns="http://www.w3.org/2000/svg">
<rect x="0.5" width="101" height="101" rx="50.5" fill="white"/>
<g clip-path="url(#clip0_28_121)">
<path fill-rule="evenodd" clip-rule="evenodd" d="M49.1436 53.8775L26.3158 35.1457C26.1846 35.0381 26.076 34.9058 25.996 34.7562C25.916 34.6066 25.8663 34.4427 25.8496 34.2739C25.816 33.9329 25.9192 33.5926 26.1365 33.3278C26.3538 33.0629 26.6675 32.8952 27.0084 32.8616C27.1772 32.845 27.3476 32.8617 27.51 32.911C27.6723 32.9602 27.8234 33.0409 27.9545 33.1485L50.7836 51.8798L52.1955 50.1576C52.626 49.633 53.1556 49.1984 53.754 48.8785C54.3525 48.5586 55.0081 48.3598 55.6834 48.2933C56.3588 48.2268 57.0406 48.294 57.6899 48.4911C58.3393 48.6882 58.9435 49.0112 59.4679 49.4418L60.8459 50.5718L74.0328 59.1454L60.8105 75.2598L49.8262 64.0005L48.4494 62.87C47.9248 62.4396 47.4901 61.9101 47.1702 61.3117C46.8502 60.7133 46.6513 60.0578 46.5847 59.3825C46.5181 58.7072 46.5852 58.0255 46.7821 57.3761C46.979 56.7268 47.3019 56.1226 47.7324 55.598L49.1448 53.877L49.1436 53.8775ZM49.7284 57.2372L54.1921 51.798C54.4072 51.5357 54.672 51.3184 54.9712 51.1584C55.2704 50.9985 55.5981 50.899 55.9358 50.8657C56.2734 50.8324 56.6143 50.8659 56.939 50.9644C57.2637 51.0629 57.5658 51.2243 57.828 51.4395L59.2055 52.5684L51.4637 62.0037L50.0869 60.8732C49.8247 60.658 49.6073 60.3933 49.4473 60.0941C49.2874 59.7949 49.1879 59.4671 49.1546 59.1295C49.1213 58.7919 49.1548 58.451 49.2533 58.1263C49.3518 57.8016 49.5132 57.4995 49.7284 57.2372ZM53.9149 64.493L60.6429 71.3903L62.3449 69.3163L57.6687 65.3672L59.3366 63.3928L63.9848 67.3186L70.2035 59.7384L62.125 54.4859L53.9149 64.493Z" fill="url(#paint0_linear_28_121)"/>
<path d="M47.1316 68.1914C47.2102 68.041 47.3176 67.9076 47.4477 67.7988C47.5778 67.6899 47.7281 67.6077 47.8899 67.557C48.0518 67.5062 48.2221 67.4878 48.391 67.5028C48.56 67.5178 48.7244 67.566 48.8747 67.6445C49.0251 67.7231 49.1585 67.8305 49.2674 67.9606C49.3762 68.0907 49.4584 68.241 49.5092 68.4028C49.56 68.5647 49.5784 68.735 49.5633 68.9039C49.5483 69.0729 49.5002 69.2373 49.4216 69.3876L49.4209 69.3893L49.4195 69.3927L49.4169 69.3966L49.409 69.4111L49.3857 69.4558L49.3021 69.6012C49.2307 69.7219 49.1283 69.8892 48.9938 70.0936C48.7226 70.5005 48.3164 71.0533 47.7682 71.6653C46.3451 73.2604 44.5847 74.5188 42.6147 75.3489C42.2985 75.4808 41.9429 75.4816 41.6261 75.3512C41.3093 75.2208 41.0573 74.9699 40.9255 74.6538C40.7937 74.3376 40.7928 73.982 40.9232 73.6652C41.0536 73.3484 41.3045 73.0963 41.6206 72.9645C43.2358 72.2821 44.6789 71.2488 45.8453 69.9396C46.2078 69.5373 46.5411 69.1098 46.8429 68.6602C46.9423 68.5124 47.0365 68.3611 47.1254 68.2066L47.1323 68.1897L47.1328 68.1909L47.1316 68.1914ZM54.2217 74.4732C54.4116 74.188 54.4804 73.8391 54.4131 73.5032C54.3457 73.1672 54.1477 72.8718 53.8625 72.6819C53.5774 72.492 53.2284 72.4231 52.8925 72.4905C52.5566 72.5578 52.2612 72.7559 52.0712 73.041L52.0699 73.0444L52.052 73.0687L51.9768 73.177C51.5139 73.8144 51.0107 74.4215 50.4703 74.9946C49.4302 76.0915 48.0389 77.2859 46.4902 77.9315C46.174 78.0633 45.9232 78.3153 45.7928 78.6321C45.6624 78.9489 45.6632 79.3045 45.795 79.6207C45.9269 79.9369 46.1789 80.1878 46.4957 80.3182C46.8125 80.4486 47.1681 80.4477 47.4843 80.3159C49.5134 79.47 51.1994 77.982 52.3464 76.7691C52.9692 76.1096 53.5486 75.4105 54.0809 74.676C54.1147 74.6288 54.148 74.5812 54.181 74.5335L54.2087 74.4925L54.2177 74.4804L54.2217 74.4732Z" fill="url(#paint1_linear_28_121)"/>
</g>
<defs>
<linearGradient id="paint0_linear_28_121" x1="43.4232" y1="25.9571" x2="62.8213" y2="74.4152" gradientUnits="userSpaceOnUse">
<stop stop-color="#890E4F"/>
<stop offset="1" stop-color="#D92584" stop-opacity="0.6"/>
</linearGradient>
<linearGradient id="paint1_linear_28_121" x1="46.0765" y1="68.3072" x2="50.4581" y2="79.0763" gradientUnits="userSpaceOnUse">
<stop stop-color="#890E4F"/>
<stop offset="1" stop-color="#D92584" stop-opacity="0.6"/>
</linearGradient>
<clipPath id="clip0_28_121">
<rect width="62" height="62" fill="white" transform="translate(20 20)"/>
</clipPath>
</defs>
</svg>
