<svg width="76" height="76" viewBox="0 0 76 76" fill="none" xmlns="http://www.w3.org/2000/svg">
<rect width="76" height="76" fill="white"/>
<circle cx="38" cy="38" r="37" stroke="#890E4F" stroke-width="2"/>
<path fill-rule="evenodd" clip-rule="evenodd" d="M31.4688 28.125C30.4742 28.125 29.5204 27.7299 28.8171 27.0267C28.1138 26.3234 27.7188 25.3696 27.7188 24.375C27.7188 23.3804 28.1138 22.4266 28.8171 21.7233C29.5204 21.0201 30.4742 20.625 31.4688 20.625C32.4633 20.625 33.4171 21.0201 34.1204 21.7233C34.8237 22.4266 35.2188 23.3804 35.2188 24.375C35.2188 25.3696 34.8237 26.3234 34.1204 27.0267C33.4171 27.7299 32.4633 28.125 31.4688 28.125ZM31.4688 26.25C30.9715 26.25 30.4946 26.0525 30.1429 25.7008C29.7913 25.3492 29.5938 24.8723 29.5938 24.375C29.5938 23.8777 29.7913 23.4008 30.1429 23.0492C30.4946 22.6975 30.9715 22.5 31.4688 22.5C31.966 22.5 32.4429 22.6975 32.7946 23.0492C33.1462 23.4008 33.3438 23.8777 33.3438 24.375C33.3438 24.8723 33.1462 25.3492 32.7946 25.7008C32.4429 26.0525 31.966 26.25 31.4688 26.25Z" fill="#890E4F"/>
<path d="M25.375 35.625C25.375 35.1277 25.5725 34.6508 25.9242 34.2992C26.2758 33.9475 26.7527 33.75 27.25 33.75V37.5C26.7527 37.5 26.2758 37.3025 25.9242 36.9508C25.5725 36.5992 25.375 36.1223 25.375 35.625Z" fill="#890E4F"/>
<path fill-rule="evenodd" clip-rule="evenodd" d="M48.0672 41.0249C49.0361 40.8013 50.0542 40.9716 50.8976 41.4985C51.741 42.0254 52.3405 42.8657 52.5644 43.8346L55.3759 51.8456L44.4147 54.3768L43.4303 45.944C43.2066 44.9751 43.377 43.9569 43.9039 43.1136C44.4308 42.2702 45.2711 41.6707 46.24 41.4468L44.6022 34.3537C44.3466 34.7443 43.9977 35.0651 43.587 35.287C43.1763 35.509 42.7168 35.6251 42.25 35.6249H37.5625V51.5624C37.5625 52.3084 37.2662 53.0237 36.7387 53.5512C36.2113 54.0786 35.4959 54.3749 34.75 54.3749C34.0041 54.3749 33.2887 54.0786 32.7613 53.5512C32.2338 53.0237 31.9375 52.3084 31.9375 51.5624V44.0624H31V51.5624C31 52.2196 30.775 52.8243 30.3963 53.3034C30.0344 53.7624 29.5385 54.0973 28.9776 54.2615C28.4166 54.4257 27.8184 54.411 27.2662 54.2195C26.7139 54.0281 26.2351 53.6693 25.8961 53.1931C25.5572 52.7169 25.375 52.1469 25.375 51.5624V40.9856C23.9097 40.3106 21.625 38.3531 21.625 35.2227C21.625 31.2787 25.2541 29.9999 26.2984 29.9999H42.25C42.775 29.9999 43.2681 30.1443 43.6891 30.3956L42.655 25.9171C42.5991 25.6748 42.6417 25.4202 42.7734 25.2093C42.9052 24.9984 43.1154 24.8485 43.3577 24.7926C43.6 24.7366 43.8546 24.7792 44.0654 24.911C44.2763 25.0428 44.4262 25.2529 44.4822 25.4952L48.0672 41.0249ZM46.6609 43.2731L48.4891 42.8512C48.729 42.7959 48.9775 42.7884 49.2203 42.8292C49.4632 42.8699 49.6956 42.9581 49.9044 43.0887C50.1131 43.2193 50.2941 43.3897 50.437 43.5902C50.5799 43.7908 50.6819 44.0175 50.7372 44.2574L45.2566 45.5221C45.2011 45.2822 45.1935 45.0337 45.2341 44.7908C45.2748 44.5479 45.3628 44.3153 45.4933 44.1065C45.6238 43.8976 45.7942 43.7165 45.9947 43.5735C46.1952 43.4305 46.4219 43.3284 46.6619 43.2731H46.6609ZM51.3513 46.0387L45.4863 47.3934L46.0338 52.0781L46.7331 51.9168L46.1003 49.1756L47.9275 48.7537L48.5603 51.4949L52.9131 50.4899L51.3513 46.0396V46.0387ZM27.25 39.7865L26.1597 39.2831C25.0872 38.7881 23.5 37.3631 23.5 35.2227C23.5 33.9159 24.0672 33.1246 24.7262 32.6081C25.0463 32.359 25.4022 32.1598 25.7819 32.0174C26.0669 31.9124 26.245 31.8843 26.2909 31.8768C26.3041 31.8749 26.3059 31.8749 26.2984 31.8749H29.125V40.3124H34.75V31.8749H42.25C42.4986 31.8749 42.7371 31.9737 42.9129 32.1495C43.0887 32.3253 43.1875 32.5638 43.1875 32.8124C43.1875 33.0611 43.0887 33.2995 42.9129 33.4754C42.7371 33.6512 42.4986 33.7499 42.25 33.7499H35.6875V51.5624C35.6875 51.8111 35.5887 52.0495 35.4129 52.2253C35.2371 52.4012 34.9986 52.4999 34.75 52.4999C34.5014 52.4999 34.2629 52.4012 34.0871 52.2253C33.9113 52.0495 33.8125 51.8111 33.8125 51.5624V42.1874H29.125V51.5624C29.125 51.8111 29.0262 52.0495 28.8504 52.2253C28.6746 52.4012 28.4361 52.4999 28.1875 52.4999C27.9389 52.4999 27.7004 52.4012 27.5246 52.2253C27.3488 52.0495 27.25 51.8111 27.25 51.5624V39.7846V39.7865ZM32.875 34.6874V31.8749H31V34.6874H32.875Z" fill="#890E4F"/>
</svg>
