<svg width="41" height="35" viewBox="0 0 41 35" fill="none" xmlns="http://www.w3.org/2000/svg">
<path d="M0.814816 34.6549L1.82895 27.3658C3.85723 27.5363 5.5052 27.1953 6.77287 26.3428C8.04054 25.5329 8.92791 24.3394 9.43498 22.7622C9.89979 21.2277 9.9843 19.4374 9.68851 17.3914H0.814816V0H18.0551V17.3914C18.0551 23.5295 16.6396 28.1757 13.8084 31.33C10.9773 34.527 6.6461 35.6353 0.814816 34.6549ZM23.7597 34.6549L24.7738 27.3658C26.8021 27.5363 28.4501 27.1953 29.7177 26.3428C30.9854 25.5329 31.8728 24.3394 32.3798 22.7622C32.8446 21.2277 32.9292 19.4374 32.6334 17.3914H23.7597V0H41V17.3914C41 23.5295 39.5844 28.1757 36.7533 31.33C33.9222 34.527 29.591 35.6353 23.7597 34.6549Z" fill="#E0E0E0"/>
</svg>
