<svg width="76" height="76" viewBox="0 0 76 76" fill="none" xmlns="http://www.w3.org/2000/svg">
<rect x="1" y="1" width="74" height="74" rx="37" fill="white"/>
<path d="M26.125 19.5C25.2299 19.5 24.3714 19.8556 23.7385 20.4885C23.1056 21.1214 22.75 21.9799 22.75 22.875V52.125C22.75 53.0201 23.1056 53.8785 23.7385 54.5115C24.3714 55.1444 25.2299 55.5 26.125 55.5H41.875C42.7701 55.5 43.6286 55.1444 44.2615 54.5115C44.8944 53.8785 45.25 53.0201 45.25 52.125V48.75C45.25 48.4516 45.1315 48.1655 44.9205 47.9545C44.7095 47.7435 44.4234 47.625 44.125 47.625C43.1957 47.625 42.6017 47.3955 42.199 47.094C41.7873 46.7857 41.4745 46.3245 41.245 45.6922C40.7635 44.3692 40.75 42.6165 40.75 40.875C40.75 40.727 40.7207 40.5805 40.664 40.4438C40.6072 40.3071 40.5241 40.183 40.4192 40.0785L39.7758 39.4328L37.0465 36.7035C35.9958 35.6528 35.6875 34.9485 35.629 34.5548C35.584 34.2397 35.6785 34.0282 35.9035 33.8123C36.385 33.351 36.7292 33.0382 37.1185 32.9437C37.3502 32.8853 37.879 32.8447 38.8285 33.7942L45.5785 40.5442C45.7894 40.7555 46.0757 40.8743 46.3742 40.8745C46.522 40.8746 46.6684 40.8456 46.805 40.7891C46.9416 40.7327 47.0658 40.6498 47.1704 40.5454C47.275 40.4409 47.358 40.3169 47.4146 40.1804C47.4713 40.0438 47.5005 39.8975 47.5006 39.7497C47.5007 39.6019 47.4717 39.4555 47.4152 39.3189C47.3588 39.1822 47.2759 39.0581 47.1715 38.9535L45.25 37.0343V30.0907L51.01 35.8507C51.3238 36.1641 51.5727 36.5362 51.7426 36.9459C51.9124 37.3555 51.9999 37.7946 52 38.238V54.375C52 54.6734 52.1185 54.9595 52.3295 55.1705C52.5405 55.3815 52.8266 55.5 53.125 55.5C53.4234 55.5 53.7095 55.3815 53.9205 55.1705C54.1315 54.9595 54.25 54.6734 54.25 54.375V38.238C54.2497 36.7468 53.6573 35.3168 52.603 34.2622L45.25 26.9093V22.875C45.25 21.9799 44.8944 21.1214 44.2615 20.4885C43.6286 19.8556 42.7701 19.5 41.875 19.5H26.125ZM43 27.375V34.7843L40.4215 32.2035C39.1187 30.903 37.825 30.4552 36.5853 30.7567C36.3417 30.8169 36.1055 30.9036 35.881 31.0155C34.8752 30.7242 33.8155 30.6707 32.7855 30.8594C31.7555 31.0481 30.7836 31.4737 29.9464 32.1027C29.1092 32.7317 28.4298 33.5467 27.9618 34.4834C27.4939 35.4202 27.2502 36.4529 27.25 37.5C27.2499 38.8049 27.628 40.0818 28.3386 41.1762C29.0492 42.2707 30.0618 43.1357 31.2538 43.6666C32.4458 44.1975 33.7661 44.3715 35.0549 44.1675C36.3438 43.9636 37.5459 43.3905 38.5157 42.5175C38.554 43.818 38.6845 45.24 39.13 46.4618C39.463 47.3775 39.994 48.2527 40.849 48.8918L40.8625 48.9053C40.1774 49.1207 39.5788 49.5491 39.1539 50.1282C38.729 50.7073 38.5 51.4068 38.5 52.125V53.25H29.5V52.125C29.5 51.2299 29.1444 50.3714 28.5115 49.7385C27.8786 49.1056 27.0201 48.75 26.125 48.75H25V26.25H26.125C27.0201 26.25 27.8786 25.8944 28.5115 25.2615C29.1444 24.6286 29.5 23.7701 29.5 22.875V21.75H38.5V22.875C38.5 23.7701 38.8556 24.6286 39.4885 25.2615C40.1214 25.8944 40.9799 26.25 41.875 26.25H43V27.375ZM43 52.125V52.1453C42.9947 52.4401 42.8738 52.7211 42.6634 52.9277C42.453 53.1343 42.1699 53.25 41.875 53.25H40.75V52.125C40.75 51.8266 40.8685 51.5405 41.0795 51.3295C41.2905 51.1185 41.5766 51 41.875 51H43V52.125ZM29.5 37.5C29.5 36.3556 29.936 35.2542 30.7193 34.4199C31.5026 33.5856 32.5744 33.0811 33.7165 33.009C33.4375 33.5265 33.2958 34.1565 33.4038 34.8832C33.5635 35.9678 34.2542 37.095 35.4535 38.2942L37.4943 40.335C36.9084 41.057 36.1133 41.5797 35.2183 41.8314C34.3232 42.0831 33.3722 42.0514 32.4959 41.7407C31.6197 41.4299 30.8611 40.8554 30.3247 40.096C29.7882 39.3366 29.5001 38.4298 29.5 37.5ZM27.25 21.75V22.875C27.25 23.1734 27.1315 23.4595 26.9205 23.6705C26.7095 23.8815 26.4234 24 26.125 24H25V22.875C25 22.5766 25.1185 22.2905 25.3295 22.0795C25.5405 21.8685 25.8266 21.75 26.125 21.75H27.25ZM25 51H26.125C26.4234 51 26.7095 51.1185 26.9205 51.3295C27.1315 51.5405 27.25 51.8266 27.25 52.125V53.25H26.125C25.8266 53.25 25.5405 53.1315 25.3295 52.9205C25.1185 52.7095 25 52.4234 25 52.125V51ZM43 24H41.875C41.5766 24 41.2905 23.8815 41.0795 23.6705C40.8685 23.4595 40.75 23.1734 40.75 22.875V21.75H41.875C42.1734 21.75 42.4595 21.8685 42.6705 22.0795C42.8815 22.2905 43 22.5766 43 22.875V24Z" fill="url(#paint0_linear_33_975)"/>
<rect x="1" y="1" width="74" height="74" rx="37" stroke="#890E4F" stroke-width="2"/>
<defs>
<linearGradient id="paint0_linear_33_975" x1="40.3" y1="19.5" x2="39.9082" y2="55.499" gradientUnits="userSpaceOnUse">
<stop stop-color="#890E4F"/>
<stop offset="1" stop-color="#D92584" stop-opacity="0.6"/>
</linearGradient>
</defs>
</svg>
