<svg width="65" height="65" viewBox="0 0 65 65" fill="none" xmlns="http://www.w3.org/2000/svg">
<path d="M43.8745 57.2002H15.5995V26.6502L32.2395 12.3502L48.7495 26.2732C48.7495 26.2732 48.7495 26.3057 48.7495 26.3252V32.1752C48.7495 32.4338 48.8523 32.6817 49.0351 32.8646C49.218 33.0474 49.466 33.1502 49.7245 33.1502C49.9831 33.1502 50.2311 33.0474 50.414 32.8646C50.5968 32.6817 50.6995 32.4338 50.6995 32.1752V27.9112L56.244 32.5912C56.4414 32.7584 56.6972 32.8403 56.955 32.819C57.2128 32.7977 57.4516 32.6748 57.6188 32.4774C57.786 32.28 57.868 32.0243 57.8466 31.7665C57.8253 31.5087 57.7024 31.2699 57.505 31.1027L32.8635 10.3027C32.6869 10.1516 32.4622 10.0686 32.2298 10.0686C31.9974 10.0686 31.7726 10.1516 31.596 10.3027L7.48755 31.0377C7.29102 31.2101 7.17103 31.4535 7.15396 31.7143C7.13689 31.9752 7.22415 32.2321 7.39655 32.4287C7.56894 32.6252 7.81234 32.7452 8.0732 32.7623C8.33406 32.7793 8.59102 32.6921 8.78755 32.5197L13.6495 28.3142V58.1752C13.6495 58.4338 13.7523 58.6818 13.9351 58.8646C14.118 59.0474 14.366 59.1502 14.6245 59.1502H43.8745C44.1331 59.1502 44.3811 59.0474 44.564 58.8646C44.7468 58.6818 44.8495 58.4338 44.8495 58.1752C44.8495 57.9166 44.7468 57.6686 44.564 57.4857C44.3811 57.3029 44.1331 57.2002 43.8745 57.2002Z" fill="url(#paint0_linear_165_10)"/>
<path d="M59.7999 46.3645C58.6078 46.3756 57.426 46.1439 56.3264 45.6835C55.2268 45.2231 54.2324 44.5436 53.4039 43.6865C51.8027 42.0532 50.8429 39.8982 50.6999 37.6155C50.6999 37.4855 50.6999 37.362 50.6999 37.232C50.697 37.1228 50.675 37.015 50.6349 36.9135C50.5994 36.6814 50.4824 36.4696 50.305 36.316C50.1275 36.1623 49.9011 36.0769 49.6664 36.075C49.4124 36.0817 49.171 36.1874 48.9937 36.3696C48.8165 36.5517 48.7173 36.7958 48.7174 37.05C48.7174 37.2385 48.7174 37.427 48.7174 37.622C48.5484 42.3865 44.3754 46.2539 39.2209 46.3059H39.1104H38.9999C38.7413 46.3059 38.4933 46.4087 38.3105 46.5915C38.1276 46.7744 38.0249 47.0224 38.0249 47.2809C38.0249 47.5395 38.1276 47.7875 38.3105 47.9704C38.4933 48.1532 38.7413 48.2559 38.9999 48.2559C41.5006 48.2806 43.8939 49.2761 45.6743 51.0322C47.4548 52.7884 48.483 55.1678 48.5419 57.668C48.5701 57.9545 48.6926 58.2236 48.8902 58.433C49.0879 58.6424 49.3495 58.7803 49.6339 58.825C49.8925 58.825 50.1405 58.7222 50.3233 58.5394C50.5062 58.3565 50.6089 58.1085 50.6089 57.85C50.5569 52.65 54.5999 48.373 59.5529 48.3145H59.7999C60.0585 48.3145 60.3065 48.2117 60.4893 48.0289C60.6722 47.846 60.7749 47.598 60.7749 47.3395C60.7749 47.0809 60.6722 46.8329 60.4893 46.65C60.3065 46.4672 60.0585 46.3645 59.7999 46.3645ZM49.5494 53.2999C48.3886 50.6806 46.307 48.5783 43.6994 47.3915C46.3451 46.3298 48.494 44.3109 49.7184 41.7365C50.2757 42.9683 51.0483 44.0909 51.9999 45.0514C52.9358 46.0012 54.0372 46.7721 55.2499 47.3264C52.6618 48.5238 50.6244 50.6587 49.5494 53.2999Z" fill="url(#paint1_linear_165_10)"/>
<path d="M11.375 11.9338H11.44C12.8088 11.9668 14.1123 12.5252 15.0805 13.4933C16.0486 14.4615 16.607 15.765 16.64 17.1338C16.6606 17.4075 16.7778 17.665 16.9707 17.8602C17.1635 18.0555 17.4196 18.1759 17.693 18.1998C17.8211 18.1981 17.9475 18.1712 18.0652 18.1206C18.1828 18.07 18.2893 17.9968 18.3787 17.905C18.468 17.8133 18.5384 17.7048 18.5858 17.5859C18.6332 17.4669 18.6567 17.3398 18.655 17.2118C18.6146 15.8649 19.1087 14.5567 20.0293 13.5727C20.95 12.5888 22.2224 12.0089 23.569 11.9598H23.725C23.9836 11.9598 24.2316 11.857 24.4145 11.6742C24.5973 11.4913 24.7 11.2433 24.7 10.9848C24.7 10.7262 24.5973 10.4782 24.4145 10.2953C24.2316 10.1125 23.9836 10.0098 23.725 10.0098C23.0702 10.0207 22.4202 9.89588 21.8161 9.64305C21.212 9.39021 20.6668 9.01488 20.215 8.54076C19.3327 7.64206 18.8022 6.45652 18.72 5.19976C18.72 5.12176 18.72 5.05026 18.72 4.97226C18.718 4.87955 18.7027 4.78761 18.6745 4.69926C18.6358 4.4732 18.5176 4.2684 18.3412 4.12181C18.1648 3.97522 17.9419 3.89647 17.7125 3.89976C17.5845 3.90145 17.458 3.92836 17.3404 3.97893C17.2227 4.0295 17.1162 4.10275 17.0269 4.1945C16.9375 4.28624 16.8672 4.39469 16.8197 4.51364C16.7723 4.63259 16.7488 4.75972 16.7505 4.88776C16.7505 5.00476 16.7505 5.11526 16.7505 5.22576C16.6479 6.53766 16.0475 7.76065 15.0722 8.64409C14.0969 9.52752 12.8207 10.0045 11.505 9.97726H11.349C11.0904 9.97726 10.8424 10.08 10.6596 10.2628C10.4767 10.4457 10.374 10.6937 10.374 10.9523C10.374 11.2108 10.4767 11.4588 10.6596 11.6417C10.8424 11.8245 11.0904 11.9273 11.349 11.9273L11.375 11.9338ZM17.7385 8.48876C18.0357 9.00385 18.396 9.47986 18.811 9.90576C19.2116 10.3169 19.6613 10.6772 20.15 10.9783C19.0891 11.6315 18.2192 12.553 17.628 13.6498C17.2947 13.0756 16.8859 12.5487 16.4125 12.0833C16.0017 11.6868 15.5457 11.3399 15.054 11.0498C16.1586 10.4472 17.0846 9.56376 17.7385 8.48876Z" fill="url(#paint2_linear_165_10)"/>
<path d="M27.6249 29.25C27.3663 29.25 27.1183 29.3527 26.9355 29.5356C26.7526 29.7184 26.6499 29.9664 26.6499 30.225V40.625C26.6499 40.8836 26.7526 41.1316 26.9355 41.3144C27.1183 41.4973 27.3663 41.6 27.6249 41.6H38.0249C38.2835 41.6 38.5315 41.4973 38.7143 41.3144C38.8972 41.1316 38.9999 40.8836 38.9999 40.625V30.225C38.9999 29.9664 38.8972 29.7184 38.7143 29.5356C38.5315 29.3527 38.2835 29.25 38.0249 29.25H27.6249ZM37.0499 39.65H28.5999V31.2H37.0499V39.65Z" fill="url(#paint3_linear_165_10)"/>
<defs>
<linearGradient id="paint0_linear_165_10" x1="35.3979" y1="10.0686" x2="34.9454" y2="59.1504" gradientUnits="userSpaceOnUse">
<stop stop-color="#890E4F"/>
<stop offset="1" stop-color="#D92584" stop-opacity="0.6"/>
</linearGradient>
<linearGradient id="paint1_linear_165_10" x1="50.6999" y1="36.075" x2="50.4832" y2="58.825" gradientUnits="userSpaceOnUse">
<stop stop-color="#890E4F"/>
<stop offset="1" stop-color="#D92584" stop-opacity="0.6"/>
</linearGradient>
<linearGradient id="paint2_linear_165_10" x1="18.3557" y1="3.89966" x2="18.2197" y2="18.1998" gradientUnits="userSpaceOnUse">
<stop stop-color="#890E4F"/>
<stop offset="1" stop-color="#D92584" stop-opacity="0.6"/>
</linearGradient>
<linearGradient id="paint3_linear_165_10" x1="33.5306" y1="29.25" x2="33.413" y2="41.6" gradientUnits="userSpaceOnUse">
<stop stop-color="#890E4F"/>
<stop offset="1" stop-color="#D92584" stop-opacity="0.6"/>
</linearGradient>
</defs>
</svg>
