<svg width="102" height="101" viewBox="0 0 102 101" fill="none" xmlns="http://www.w3.org/2000/svg">
<rect x="0.5" width="101" height="101" rx="50.5" fill="white"/>
<path d="M46.5294 64.478V49.1428H44.7095C43.4061 49.8375 42.1464 50.6114 40.9375 51.46V53.4581C42.0156 52.7192 43.7234 51.6756 44.5542 51.2243H44.5887V64.478H46.5294ZM49.9449 60.7261C50.08 62.5661 51.6526 64.7684 54.841 64.7684C58.4578 64.7684 60.591 61.7036 60.591 56.5142C60.591 50.954 58.3456 48.8438 54.9761 48.8438C52.3139 48.8438 49.8097 50.7758 49.8097 54.0446C49.8097 57.3796 52.1788 59.1334 54.6283 59.1334C56.773 59.1334 58.1645 58.0524 58.6044 56.8621H58.682C58.6705 60.6456 57.3566 63.0836 54.9301 63.0836C53.0211 63.0836 52.0321 61.7899 51.9114 60.7261H49.9449ZM58.4348 54.0647C58.4348 56.0657 56.8276 57.4573 55.0308 57.4573C53.3029 57.4573 51.7418 56.3561 51.7418 54.0072C51.7418 51.6411 53.415 50.5285 55.0997 50.5285C56.9196 50.5285 58.4348 51.6727 58.4348 54.0647Z" fill="url(#paint0_linear_28_109)"/>
<path d="M38.0625 28C38.4437 28 38.8094 28.1515 39.079 28.421C39.3485 28.6906 39.5 29.0563 39.5 29.4375V30.875H62.5V29.4375C62.5 29.0563 62.6515 28.6906 62.921 28.421C63.1906 28.1515 63.5563 28 63.9375 28C64.3187 28 64.6844 28.1515 64.954 28.421C65.2235 28.6906 65.375 29.0563 65.375 29.4375V30.875H68.25C69.775 30.875 71.2375 31.4808 72.3159 32.5591C73.3942 33.6375 74 35.1 74 36.625V68.25C74 69.775 73.3942 71.2375 72.3159 72.3159C71.2375 73.3942 69.775 74 68.25 74H33.75C32.225 74 30.7625 73.3942 29.6841 72.3159C28.6058 71.2375 28 69.775 28 68.25V36.625C28 35.1 28.6058 33.6375 29.6841 32.5591C30.7625 31.4808 32.225 30.875 33.75 30.875H36.625V29.4375C36.625 29.0563 36.7765 28.6906 37.046 28.421C37.3156 28.1515 37.6813 28 38.0625 28V28ZM33.75 33.75C32.9875 33.75 32.2562 34.0529 31.7171 34.5921C31.1779 35.1312 30.875 35.8625 30.875 36.625V68.25C30.875 69.0125 31.1779 69.7438 31.7171 70.2829C32.2562 70.8221 32.9875 71.125 33.75 71.125H68.25C69.0125 71.125 69.7438 70.8221 70.2829 70.2829C70.8221 69.7438 71.125 69.0125 71.125 68.25V36.625C71.125 35.8625 70.8221 35.1312 70.2829 34.5921C69.7438 34.0529 69.0125 33.75 68.25 33.75H33.75Z" fill="url(#paint1_linear_28_109)"/>
<path d="M35.1875 39.5C35.1875 39.1188 35.339 38.7531 35.6085 38.4835C35.8781 38.214 36.2438 38.0625 36.625 38.0625H65.375C65.7562 38.0625 66.1219 38.214 66.3915 38.4835C66.6611 38.7531 66.8125 39.1188 66.8125 39.5V42.375C66.8125 42.7562 66.6611 43.1219 66.3915 43.3915C66.1219 43.661 65.7562 43.8125 65.375 43.8125H36.625C36.2438 43.8125 35.8781 43.661 35.6085 43.3915C35.339 43.1219 35.1875 42.7562 35.1875 42.375V39.5Z" fill="url(#paint2_linear_28_109)"/>
<defs>
<linearGradient id="paint0_linear_28_109" x1="51.8873" y1="48.8437" x2="51.7644" y2="64.7689" gradientUnits="userSpaceOnUse">
<stop stop-color="#890E4F"/>
<stop offset="1" stop-color="#D92584" stop-opacity="0.6"/>
</linearGradient>
<linearGradient id="paint1_linear_28_109" x1="53.6286" y1="28" x2="53.1905" y2="74" gradientUnits="userSpaceOnUse">
<stop stop-color="#890E4F"/>
<stop offset="1" stop-color="#D92584" stop-opacity="0.6"/>
</linearGradient>
<linearGradient id="paint2_linear_28_109" x1="52.8071" y1="38.0625" x2="52.7972" y2="43.813" gradientUnits="userSpaceOnUse">
<stop stop-color="#890E4F"/>
<stop offset="1" stop-color="#D92584" stop-opacity="0.6"/>
</linearGradient>
</defs>
</svg>
