<svg width="76" height="76" viewBox="0 0 76 76" fill="none" xmlns="http://www.w3.org/2000/svg">
<rect x="1" y="1" width="74" height="74" rx="37" fill="white"/>
<path d="M28.0002 47.9999L24.1668 51.8333C23.6391 52.361 23.0346 52.4788 22.3535 52.1866C21.6735 51.8955 21.3335 51.3749 21.3335 50.6249V24.6666C21.3335 23.7499 21.6602 22.9649 22.3135 22.3116C22.9657 21.6594 23.7502 21.3333 24.6668 21.3333H51.3335C52.2502 21.3333 53.0352 21.6594 53.6885 22.3116C54.3407 22.9649 54.6668 23.7499 54.6668 24.6666V34.6666H51.3335V24.6666H24.6668V44.6666H43.0002V47.9999H28.0002ZM24.6668 44.6666V24.6666V44.6666ZM49.6668 47.9999H48.0002C47.5279 47.9999 47.1324 47.8399 46.8135 47.5199C46.4935 47.201 46.3335 46.8055 46.3335 46.3333V39.6666C46.3335 39.1944 46.4935 38.7983 46.8135 38.4783C47.1324 38.1594 47.5279 37.9999 48.0002 37.9999H52.1668C52.7779 37.9999 53.2363 38.2499 53.5418 38.7499C53.8474 39.2499 53.889 39.7777 53.6668 40.3333L51.8335 44.6666H53.4585C53.9307 44.6666 54.2918 44.861 54.5418 45.2499C54.7918 45.6388 54.8057 46.0416 54.5835 46.4583L51.2502 53.1666C51.0557 53.5555 50.7435 53.701 50.3135 53.6033C49.8824 53.5066 49.6668 53.236 49.6668 52.7916V47.9999Z" fill="url(#paint0_linear_33_977)"/>
<rect x="1" y="1" width="74" height="74" rx="37" stroke="#890E4F" stroke-width="2"/>
<defs>
<linearGradient id="paint0_linear_33_977" x1="39.9459" y1="21.3333" x2="39.6485" y2="53.6329" gradientUnits="userSpaceOnUse">
<stop stop-color="#890E4F"/>
<stop offset="1" stop-color="#D92584" stop-opacity="0.6"/>
</linearGradient>
</defs>
</svg>
