<svg width="30" height="30" viewBox="0 0 30 30" fill="none" xmlns="http://www.w3.org/2000/svg">
<path d="M27.6855 12.0703H20.1855C20.0566 12.0703 19.9512 12.1758 19.9512 12.3047V13.7109C19.9512 13.8398 20.0566 13.9453 20.1855 13.9453H27.6855C27.8145 13.9453 27.9199 13.8398 27.9199 13.7109V12.3047C27.9199 12.1758 27.8145 12.0703 27.6855 12.0703ZM23.7598 16.0547H20.1855C20.0566 16.0547 19.9512 16.1602 19.9512 16.2891V17.6953C19.9512 17.8242 20.0566 17.9297 20.1855 17.9297H23.7598C23.8887 17.9297 23.9941 17.8242 23.9941 17.6953V16.2891C23.9941 16.1602 23.8887 16.0547 23.7598 16.0547ZM13.9834 9.44824H12.7148C12.5332 9.44824 12.3867 9.59473 12.3867 9.77637V17.042C12.3867 17.1475 12.4365 17.2441 12.5215 17.3057L16.8838 20.4873C17.0303 20.5928 17.2354 20.5635 17.3408 20.417L18.0938 19.3887V19.3857C18.1992 19.2393 18.167 19.0342 18.0205 18.9287L14.3086 16.2451V9.77637C14.3115 9.59473 14.1621 9.44824 13.9834 9.44824Z" fill="url(#paint0_linear_102_137)"/>
<path d="M23.5781 19.7431H21.8848C21.7207 19.7431 21.5655 19.828 21.4776 19.9687C21.1055 20.5575 20.6719 21.1025 20.1738 21.6005C19.3155 22.4589 18.3164 23.1327 17.2061 23.6015C16.0547 24.0878 14.833 24.3339 13.5733 24.3339C12.3106 24.3339 11.0889 24.0878 9.94045 23.6015C8.8301 23.1327 7.83108 22.4589 6.97268 21.6005C6.11428 20.7421 5.44045 19.7431 4.9717 18.6327C4.48537 17.4843 4.23928 16.2626 4.23928 14.9999C4.23928 13.7372 4.48537 12.5185 4.9717 11.3671C5.44045 10.2568 6.11428 9.25773 6.97268 8.39933C7.83108 7.54093 8.8301 6.8671 9.94045 6.39835C11.0889 5.91203 12.3135 5.66593 13.5733 5.66593C14.836 5.66593 16.0576 5.91203 17.2061 6.39835C18.3164 6.8671 19.3155 7.54093 20.1738 8.39933C20.6719 8.89738 21.1055 9.4423 21.4776 10.0312C21.5655 10.1718 21.7207 10.2568 21.8848 10.2568H23.5781C23.7803 10.2568 23.9092 10.0458 23.8184 9.86711C21.9082 6.0673 18.0352 3.59757 13.711 3.54777C7.3799 3.46867 2.12111 8.65129 2.1094 14.9765C2.09768 21.3134 7.23342 26.455 13.5703 26.455C17.9502 26.455 21.8877 23.9765 23.8184 20.1327C23.9092 19.954 23.7774 19.7431 23.5781 19.7431Z" fill="url(#paint1_linear_102_137)"/>
<defs>
<linearGradient id="paint0_linear_102_137" x1="21.0409" y1="9.44824" x2="20.9654" y2="20.5508" gradientUnits="userSpaceOnUse">
<stop stop-color="#890E4F"/>
<stop offset="1" stop-color="#D92584" stop-opacity="0.6"/>
</linearGradient>
<linearGradient id="paint1_linear_102_137" x1="14.2209" y1="3.54687" x2="13.991" y2="26.4548" gradientUnits="userSpaceOnUse">
<stop stop-color="#890E4F"/>
<stop offset="1" stop-color="#D92584" stop-opacity="0.6"/>
</linearGradient>
</defs>
</svg>
