<svg width="65" height="65" viewBox="0 0 65 65" fill="none" xmlns="http://www.w3.org/2000/svg">
<path d="M61.9531 9.14062H57.8906C57.6213 9.14062 57.3629 9.24763 57.1725 9.43809C56.982 9.62856 56.875 9.88689 56.875 10.1562V11.1719H55.8594V9.14062C55.8594 8.87126 55.7523 8.61294 55.5619 8.42247C55.3715 8.23201 55.1131 8.125 54.8438 8.125H21.3281C21.0588 8.125 20.8004 8.23201 20.61 8.42247C20.4195 8.61294 20.3125 8.87126 20.3125 9.14062V10.1562H17.2656C16.9963 10.1562 16.7379 10.2633 16.5475 10.4537C16.357 10.6442 16.25 10.9025 16.25 11.1719V11.6797L12.5937 14.4219C12.4676 14.5164 12.3652 14.6391 12.2948 14.7802C12.2242 14.9212 12.1875 15.0767 12.1875 15.2344C12.1875 15.392 12.2242 15.5476 12.2948 15.6886C12.3652 15.8296 12.4676 15.9523 12.5937 16.0469L16.25 18.7891V19.2969C16.25 19.5662 16.357 19.8246 16.5475 20.015C16.7379 20.2055 16.9963 20.3125 17.2656 20.3125H20.3125V21.3281C20.3125 21.5975 20.4195 21.8558 20.61 22.0463C20.8004 22.2367 21.0588 22.3438 21.3281 22.3438V28.4375H17.2656C17.0573 28.4376 16.8541 28.5019 16.6835 28.6214C16.5129 28.741 16.3831 28.9101 16.312 29.1058L12.2495 40.2777C12.2087 40.389 12.1877 40.5065 12.1875 40.625V61.9531C12.1875 62.2225 12.2945 62.4808 12.485 62.6713C12.6754 62.8617 12.9338 62.9688 13.2031 62.9688H35.5469C35.8162 62.9688 36.0746 62.8617 36.265 62.6713C36.4555 62.4808 36.5625 62.2225 36.5625 61.9531V40.625C36.5623 40.5065 36.5413 40.389 36.5005 40.2777L32.438 29.1058C32.3668 28.9101 32.2371 28.741 32.0665 28.6214C31.8959 28.5019 31.6927 28.4376 31.4844 28.4375H27.4219V22.3438H37.8899L40.625 29.637V37.3384L39.7109 39.1554C39.5905 39.3965 39.5708 39.6755 39.6562 39.9311C39.7415 40.1868 39.9248 40.3979 40.1659 40.5184C40.407 40.6388 40.686 40.6585 40.9417 40.5731C41.1973 40.4878 41.4085 40.3045 41.5289 40.0634L42.5445 38.0321C42.6165 37.8915 42.6548 37.7361 42.6562 37.5781V29.4531C42.6565 29.3315 42.6348 29.2107 42.5923 29.0966L40.0593 22.3438H42.0469L52.9283 43.1275C53.0143 43.2917 53.1436 43.4292 53.3022 43.5252C53.4609 43.6212 53.6428 43.6719 53.8281 43.6719H56.875V46.7188C56.875 47.2574 56.661 47.7741 56.28 48.155C55.8991 48.536 55.3824 48.75 54.8438 48.75H46.7188C45.6413 48.75 44.608 49.178 43.8462 49.9399C43.0842 50.7017 42.6562 51.735 42.6562 52.8125C42.6562 53.89 43.0842 54.9233 43.8462 55.6851C44.608 56.447 45.6413 56.875 46.7188 56.875H56.875C57.4137 56.875 57.9303 57.089 58.3113 57.47C58.6923 57.8509 58.9062 58.3676 58.9062 58.9062V61.9531C58.9062 62.2225 59.0133 62.4808 59.2037 62.6713C59.3942 62.8617 59.6525 62.9688 59.9219 62.9688C60.1912 62.9688 60.4496 62.8617 60.64 62.6713C60.8305 62.4808 60.9375 62.2225 60.9375 61.9531V58.9062C60.9375 57.8288 60.5095 56.7955 59.7476 56.0337C58.9858 55.2717 57.9525 54.8438 56.875 54.8438H46.7188C46.1801 54.8438 45.6634 54.6298 45.2825 54.2488C44.9015 53.8678 44.6875 53.3512 44.6875 52.8125C44.6875 52.2738 44.9015 51.7572 45.2825 51.3762C45.6634 50.9952 46.1801 50.7812 46.7188 50.7812H54.8438C55.9212 50.7812 56.9545 50.3533 57.7163 49.5913C58.4783 48.8295 58.9062 47.7962 58.9062 46.7188V43.6719H61.9531C62.2225 43.6719 62.4808 43.5648 62.6713 43.3744C62.8617 43.184 62.9688 42.9256 62.9688 42.6562V31.4844C62.9681 31.3059 62.9205 31.1307 62.8306 30.9766L55.8594 19.0216V17.2656H56.875V18.2812C56.875 18.5506 56.982 18.809 57.1725 18.9994C57.3629 19.1898 57.6213 19.2969 57.8906 19.2969H61.9531C62.2225 19.2969 62.4808 19.1898 62.6713 18.9994C62.8617 18.809 62.9688 18.5506 62.9688 18.2812V10.1562C62.9688 9.88689 62.8617 9.62856 62.6713 9.43809C62.4808 9.24763 62.2225 9.14062 61.9531 9.14062ZM16.25 16.25L14.8962 15.2344L16.25 14.2188V16.25ZM20.3125 18.2812H18.2812V12.1875H20.3125V18.2812ZM34.5312 60.9375H14.2188V45.7031H34.5312V60.9375ZM34.5312 43.6719H14.2188V41.6406H34.5312V43.6719ZM30.7734 30.4688L34.0966 39.6094H14.6534L17.9766 30.4688H30.7734ZM23.3594 28.4375V22.3438H25.3906V28.4375H23.3594ZM41.6406 20.3125H22.3438V10.1562H41.6406V20.3125ZM56.0188 23.3269L57.2223 25.3906H50.7812C50.5119 25.3906 50.2535 25.4977 50.0631 25.6881C49.8727 25.8785 49.7656 26.1369 49.7656 26.4062C49.7656 26.6756 49.8727 26.934 50.0631 27.1244C50.2535 27.3148 50.5119 27.4219 50.7812 27.4219H57.8906C58.0472 27.4189 58.201 27.3792 58.3395 27.3061L59.5918 29.4531H51.7969C51.5275 29.4531 51.2692 29.5602 51.0787 29.7506C50.8883 29.941 50.7812 30.1994 50.7812 30.4688C50.7812 30.7381 50.8883 30.9965 51.0787 31.1869C51.2692 31.3773 51.5275 31.4844 51.7969 31.4844H60.777L60.9375 31.7596V33.5156H53.8281C53.5588 33.5156 53.3004 33.6227 53.11 33.8131C52.9195 34.0035 52.8125 34.2619 52.8125 34.5312C52.8125 34.8006 52.9195 35.059 53.11 35.2494C53.3004 35.4398 53.5588 35.5469 53.8281 35.5469H60.9375V37.5781H55.8594C55.59 37.5781 55.3317 37.6852 55.1412 37.8756C54.9508 38.066 54.8438 38.3244 54.8438 38.5938C54.8438 38.8631 54.9508 39.1215 55.1412 39.3119C55.3317 39.5023 55.59 39.6094 55.8594 39.6094H60.9375V41.6406H54.4375L43.6719 21.0783V10.1562H53.8281V19.2969C53.8287 19.4753 53.8764 19.6505 53.9663 19.8047L54.8529 21.3281H49.7656C49.4963 21.3281 49.2379 21.4352 49.0475 21.6256C48.857 21.816 48.75 22.0744 48.75 22.3438C48.75 22.6131 48.857 22.8715 49.0475 23.0619C49.2379 23.2523 49.4963 23.3594 49.7656 23.3594H55.8594C55.9134 23.3533 55.9667 23.3424 56.0188 23.3269ZM56.875 15.2344H55.8594V13.2031H56.875V15.2344ZM60.9375 17.2656H58.9062V11.1719H60.9375V17.2656Z" fill="url(#paint0_linear_80_565)"/>
<path d="M11.4694 9.85888C11.661 10.0439 11.9175 10.1463 12.1838 10.1439C12.4501 10.1416 12.7048 10.0348 12.8931 9.84651C13.0814 9.65821 13.1883 9.40348 13.1906 9.13718C13.1929 8.87089 13.0906 8.61434 12.9055 8.42279L6.81177 2.32904C6.62022 2.14403 6.36367 2.04167 6.09737 2.04398C5.83109 2.0463 5.57635 2.1531 5.38805 2.34141C5.19974 2.52972 5.09293 2.78445 5.09061 3.05074C5.0883 3.31704 5.19067 3.57359 5.37568 3.76513L11.4694 9.85888Z" fill="url(#paint1_linear_80_565)"/>
<path d="M3.04688 16.25H9.14062C9.40999 16.25 9.66831 16.143 9.85878 15.9525C10.0492 15.7621 10.1562 15.5037 10.1562 15.2344C10.1562 14.965 10.0492 14.7067 9.85878 14.5162C9.66831 14.3258 9.40999 14.2188 9.14062 14.2188H3.04688C2.77751 14.2188 2.51919 14.3258 2.32872 14.5162C2.13826 14.7067 2.03125 14.965 2.03125 15.2344C2.03125 15.5037 2.13826 15.7621 2.32872 15.9525C2.51919 16.143 2.77751 16.25 3.04688 16.25Z" fill="url(#paint2_linear_80_565)"/>
<path d="M12.9056 19.5947C12.7152 19.4044 12.4569 19.2974 12.1875 19.2974C11.9182 19.2974 11.6599 19.4044 11.4695 19.5947L5.37574 25.6885C5.27873 25.7822 5.20136 25.8943 5.14813 26.0182C5.0949 26.1421 5.06689 26.2754 5.06571 26.4102C5.06454 26.5451 5.09024 26.6788 5.1413 26.8036C5.19237 26.9285 5.26779 27.0418 5.36315 27.1372C5.4585 27.2325 5.5719 27.308 5.69672 27.3591C5.82154 27.4101 5.95528 27.4358 6.09013 27.4347C6.22499 27.4334 6.35826 27.4054 6.48216 27.3522C6.60607 27.299 6.71814 27.2216 6.81182 27.1246L12.9056 21.0308C13.096 20.8404 13.203 20.5821 13.203 20.3128C13.203 20.0435 13.096 19.7853 12.9056 19.5947Z" fill="url(#paint3_linear_80_565)"/>
<defs>
<linearGradient id="paint0_linear_80_565" x1="40.4799" y1="8.125" x2="39.9158" y2="62.9679" gradientUnits="userSpaceOnUse">
<stop stop-color="#890E4F"/>
<stop offset="1" stop-color="#D92584" stop-opacity="0.6"/>
</linearGradient>
<linearGradient id="paint1_linear_80_565" x1="9.60348" y1="2.04395" x2="9.52633" y2="10.144" gradientUnits="userSpaceOnUse">
<stop stop-color="#890E4F"/>
<stop offset="1" stop-color="#D92584" stop-opacity="0.6"/>
</linearGradient>
<linearGradient id="paint2_linear_80_565" x1="6.55804" y1="14.2187" x2="6.5532" y2="16.2502" gradientUnits="userSpaceOnUse">
<stop stop-color="#890E4F"/>
<stop offset="1" stop-color="#D92584" stop-opacity="0.6"/>
</linearGradient>
<linearGradient id="paint3_linear_80_565" x1="9.5993" y1="19.2974" x2="9.52181" y2="27.4347" gradientUnits="userSpaceOnUse">
<stop stop-color="#890E4F"/>
<stop offset="1" stop-color="#D92584" stop-opacity="0.6"/>
</linearGradient>
</defs>
</svg>
