<svg width="65" height="65" viewBox="0 0 65 65" fill="none" xmlns="http://www.w3.org/2000/svg">
<path d="M43.8748 57.2002H15.5998V26.6502L32.2398 12.3502L48.7498 26.2732C48.7498 26.2732 48.7498 26.3057 48.7498 26.3252V32.1752C48.7498 32.4338 48.8525 32.6817 49.0354 32.8646C49.2182 33.0474 49.4662 33.1502 49.7248 33.1502C49.9834 33.1502 50.2314 33.0474 50.4142 32.8646C50.5971 32.6817 50.6998 32.4338 50.6998 32.1752V27.9112L56.2443 32.5912C56.4417 32.7584 56.6974 32.8403 56.9552 32.819C57.213 32.7977 57.4518 32.6748 57.619 32.4774C57.7863 32.28 57.8682 32.0243 57.8469 31.7665C57.8256 31.5087 57.7027 31.2699 57.5053 31.1027L32.8638 10.3027C32.6872 10.1516 32.4624 10.0686 32.23 10.0686C31.9976 10.0686 31.7729 10.1516 31.5963 10.3027L7.48779 31.0377C7.29126 31.2101 7.17127 31.4535 7.1542 31.7143C7.13714 31.9752 7.2244 32.2321 7.39679 32.4287C7.56918 32.6252 7.81258 32.7452 8.07344 32.7623C8.33431 32.7793 8.59126 32.6921 8.78779 32.5197L13.6498 28.3142V58.1752C13.6498 58.4338 13.7525 58.6818 13.9354 58.8646C14.1182 59.0474 14.3662 59.1502 14.6248 59.1502H43.8748C44.1334 59.1502 44.3814 59.0474 44.5642 58.8646C44.7471 58.6818 44.8498 58.4338 44.8498 58.1752C44.8498 57.9166 44.7471 57.6686 44.5642 57.4857C44.3814 57.3029 44.1334 57.2002 43.8748 57.2002Z" fill="url(#paint0_linear_78_431)"/>
<path d="M59.7998 46.3645C58.6077 46.3756 57.4259 46.1439 56.3263 45.6835C55.2266 45.2231 54.2323 44.5436 53.4038 43.6865C51.8026 42.0532 50.8428 39.8982 50.6998 37.6155C50.6998 37.4855 50.6998 37.362 50.6998 37.232C50.6969 37.1228 50.6749 37.015 50.6348 36.9135C50.5993 36.6814 50.4823 36.4696 50.3048 36.316C50.1274 36.1623 49.901 36.0769 49.6663 36.075C49.4122 36.0817 49.1709 36.1874 48.9936 36.3696C48.8163 36.5517 48.7172 36.7958 48.7173 37.05C48.7173 37.2385 48.7173 37.427 48.7173 37.622C48.5483 42.3865 44.3753 46.2539 39.2208 46.3059H39.1103H38.9998C38.7412 46.3059 38.4932 46.4087 38.3104 46.5915C38.1275 46.7744 38.0248 47.0224 38.0248 47.2809C38.0248 47.5395 38.1275 47.7875 38.3104 47.9704C38.4932 48.1532 38.7412 48.2559 38.9998 48.2559C41.5005 48.2806 43.8938 49.2761 45.6742 51.0322C47.4546 52.7884 48.4829 55.1678 48.5418 57.668C48.57 57.9545 48.6925 58.2236 48.8901 58.433C49.0878 58.6424 49.3493 58.7803 49.6338 58.825C49.8924 58.825 50.1404 58.7222 50.3232 58.5394C50.5061 58.3565 50.6088 58.1085 50.6088 57.85C50.5568 52.65 54.5998 48.373 59.5528 48.3145H59.7998C60.0584 48.3145 60.3064 48.2117 60.4892 48.0289C60.6721 47.846 60.7748 47.598 60.7748 47.3395C60.7748 47.0809 60.6721 46.8329 60.4892 46.65C60.3064 46.4672 60.0584 46.3645 59.7998 46.3645ZM49.5493 53.2999C48.3885 50.6806 46.3069 48.5783 43.6993 47.3915C46.345 46.3298 48.4939 44.3109 49.7183 41.7365C50.2756 42.9683 51.0482 44.0909 51.9998 45.0514C52.9357 46.0012 54.0371 46.7721 55.2498 47.3264C52.6616 48.5238 50.6243 50.6587 49.5493 53.2999Z" fill="url(#paint1_linear_78_431)"/>
<path d="M11.3748 11.9338H11.4398C12.8085 11.9668 14.1121 12.5252 15.0802 13.4933C16.0483 14.4615 16.6068 15.765 16.6398 17.1338C16.6603 17.4075 16.7775 17.665 16.9704 17.8602C17.1633 18.0555 17.4193 18.1759 17.6928 18.1998C17.8208 18.1981 17.9473 18.1712 18.0649 18.1206C18.1826 18.07 18.2891 17.9968 18.3784 17.905C18.4678 17.8133 18.5381 17.7048 18.5856 17.5859C18.633 17.4669 18.6565 17.3398 18.6548 17.2118C18.6144 15.8649 19.1084 14.5567 20.0291 13.5727C20.9497 12.5888 22.2222 12.0089 23.5688 11.9598H23.7248C23.9834 11.9598 24.2314 11.857 24.4142 11.6742C24.5971 11.4913 24.6998 11.2433 24.6998 10.9848C24.6998 10.7262 24.5971 10.4782 24.4142 10.2953C24.2314 10.1125 23.9834 10.0098 23.7248 10.0098C23.07 10.0207 22.42 9.89588 21.8159 9.64305C21.2117 9.39021 20.6666 9.01488 20.2148 8.54076C19.3324 7.64206 18.8019 6.45652 18.7198 5.19976C18.7198 5.12176 18.7198 5.05026 18.7198 4.97226C18.7178 4.87955 18.7024 4.78761 18.6743 4.69926C18.6356 4.4732 18.5174 4.2684 18.341 4.12181C18.1646 3.97522 17.9416 3.89647 17.7123 3.89976C17.5842 3.90145 17.4578 3.92836 17.3401 3.97893C17.2225 4.0295 17.116 4.10275 17.0266 4.1945C16.9373 4.28624 16.8669 4.39469 16.8195 4.51364C16.7721 4.63259 16.7486 4.75972 16.7503 4.88776C16.7503 5.00476 16.7503 5.11526 16.7503 5.22576C16.6477 6.53766 16.0472 7.76065 15.0719 8.64409C14.0966 9.52752 12.8204 10.0045 11.5048 9.97726H11.3488C11.0902 9.97726 10.8422 10.08 10.6594 10.2628C10.4765 10.4457 10.3738 10.6937 10.3738 10.9523C10.3738 11.2108 10.4765 11.4588 10.6594 11.6417C10.8422 11.8245 11.0902 11.9273 11.3488 11.9273L11.3748 11.9338ZM17.7383 8.48876C18.0355 9.00385 18.3957 9.47986 18.8108 9.90576C19.2113 10.3169 19.661 10.6772 20.1498 10.9783C19.0888 11.6315 18.2189 12.553 17.6278 13.6498C17.2945 13.0756 16.8857 12.5487 16.4123 12.0833C16.0014 11.6868 15.5455 11.3399 15.0538 11.0498C16.1584 10.4472 17.0844 9.56376 17.7383 8.48876Z" fill="url(#paint2_linear_78_431)"/>
<path d="M27.6248 29.25C27.3662 29.25 27.1182 29.3527 26.9354 29.5356C26.7525 29.7184 26.6498 29.9664 26.6498 30.225V40.625C26.6498 40.8836 26.7525 41.1316 26.9354 41.3144C27.1182 41.4973 27.3662 41.6 27.6248 41.6H38.0248C38.2834 41.6 38.5314 41.4973 38.7142 41.3144C38.8971 41.1316 38.9998 40.8836 38.9998 40.625V30.225C38.9998 29.9664 38.8971 29.7184 38.7142 29.5356C38.5314 29.3527 38.2834 29.25 38.0248 29.25H27.6248ZM37.0498 39.65H28.5998V31.2H37.0498V39.65Z" fill="url(#paint3_linear_78_431)"/>
<defs>
<linearGradient id="paint0_linear_78_431" x1="35.3982" y1="10.0686" x2="34.9456" y2="59.1504" gradientUnits="userSpaceOnUse">
<stop stop-color="#890E4F"/>
<stop offset="1" stop-color="#D92584" stop-opacity="0.6"/>
</linearGradient>
<linearGradient id="paint1_linear_78_431" x1="50.6998" y1="36.075" x2="50.4831" y2="58.825" gradientUnits="userSpaceOnUse">
<stop stop-color="#890E4F"/>
<stop offset="1" stop-color="#D92584" stop-opacity="0.6"/>
</linearGradient>
<linearGradient id="paint2_linear_78_431" x1="18.3554" y1="3.89966" x2="18.2195" y2="18.1998" gradientUnits="userSpaceOnUse">
<stop stop-color="#890E4F"/>
<stop offset="1" stop-color="#D92584" stop-opacity="0.6"/>
</linearGradient>
<linearGradient id="paint3_linear_78_431" x1="33.5305" y1="29.25" x2="33.4129" y2="41.6" gradientUnits="userSpaceOnUse">
<stop stop-color="#890E4F"/>
<stop offset="1" stop-color="#D92584" stop-opacity="0.6"/>
</linearGradient>
</defs>
</svg>
