<svg width="61" height="61" viewBox="0 0 61 61" fill="none" xmlns="http://www.w3.org/2000/svg">
<path d="M2.0625 26.4375H36.5938V35.5781H38.625V15.2656C38.625 14.4575 38.304 13.6826 37.7326 13.1112C37.1612 12.5398 36.3862 12.2188 35.5781 12.2188H35.3913C35.5373 11.825 35.5989 11.4049 35.5721 10.9858C35.5453 10.5667 35.4307 10.1579 35.2357 9.78597C35.0407 9.41401 34.7697 9.0872 34.4403 8.82674C34.1109 8.56627 33.7303 8.37798 33.3234 8.27406C33.5112 7.8122 33.5823 7.31121 33.5306 6.81533C33.4789 6.31945 33.3058 5.84394 33.0268 5.43078C32.7477 5.01761 32.3712 4.67952 31.9306 4.44634C31.4899 4.21315 30.9986 4.09206 30.5 4.09375H22.375C21.6371 4.09244 20.9239 4.35961 20.3684 4.84542C19.8129 5.33123 19.4532 6.00251 19.3562 6.73405C19.2592 7.46558 19.4317 8.20741 19.8414 8.82116C20.2511 9.43492 20.87 9.87869 21.5828 10.0697C21.298 10.7554 21.285 11.5238 21.5462 12.2188H13.2344V5.10938C13.2344 4.84001 13.1274 4.58169 12.9369 4.39122C12.7464 4.20075 12.4881 4.09375 12.2188 4.09375V3.07812C12.2188 2.27004 11.8977 1.49506 11.3263 0.923659C10.7549 0.352259 9.97996 0.03125 9.17188 0.03125C8.36379 0.03125 7.58881 0.352259 7.01741 0.923659C6.44601 1.49506 6.125 2.27004 6.125 3.07812V4.09375C5.85564 4.09375 5.59731 4.20075 5.40685 4.39122C5.21638 4.58169 5.10938 4.84001 5.10938 5.10938V12.2188H3.07812C2.27004 12.2188 1.49506 12.5398 0.923659 13.1112C0.352259 13.6826 0.03125 14.4575 0.03125 15.2656V32.5069H2.0625V26.4375ZM22.375 6.125H30.5C30.7694 6.125 31.0277 6.232 31.2182 6.42247C31.4086 6.61294 31.5156 6.87126 31.5156 7.14062C31.5156 7.40999 31.4086 7.66831 31.2182 7.85878C31.0277 8.04925 30.7694 8.15625 30.5 8.15625H22.375C22.1056 8.15625 21.8473 8.04925 21.6568 7.85878C21.4664 7.66831 21.3594 7.40999 21.3594 7.14062C21.3594 6.87126 21.4664 6.61294 21.6568 6.42247C21.8473 6.232 22.1056 6.125 22.375 6.125ZM23.3906 11.2031C23.3906 10.9338 23.4976 10.6754 23.6881 10.485C23.8786 10.2945 24.1369 10.1875 24.4062 10.1875H32.5312C32.8006 10.1875 33.0589 10.2945 33.2494 10.485C33.4399 10.6754 33.5469 10.9338 33.5469 11.2031C33.5469 11.4725 33.4399 11.7308 33.2494 11.9213C33.0589 12.1117 32.8006 12.2188 32.5312 12.2188H24.4062C24.1369 12.2188 23.8786 12.1117 23.6881 11.9213C23.4976 11.7308 23.3906 11.4725 23.3906 11.2031ZM8.15625 3.07812C8.15625 2.80876 8.26325 2.55044 8.45372 2.35997C8.64419 2.1695 8.90251 2.0625 9.17188 2.0625C9.44124 2.0625 9.69956 2.1695 9.89003 2.35997C10.0805 2.55044 10.1875 2.80876 10.1875 3.07812V4.09375H8.15625V3.07812ZM7.14062 6.125H11.2031V12.2188H7.14062V6.125ZM3.07812 14.25H35.5781C35.8475 14.25 36.1058 14.357 36.2963 14.5475C36.4867 14.7379 36.5938 14.9963 36.5938 15.2656V24.4062H2.0625V15.2656C2.0625 14.9963 2.1695 14.7379 2.35997 14.5475C2.55044 14.357 2.80876 14.25 3.07812 14.25Z" fill="url(#paint0_linear_80_551)"/>
<path d="M30.5 60.969V58.9377H3.07812C2.80876 58.9377 2.55044 58.8307 2.35997 58.6402C2.1695 58.4498 2.0625 58.1915 2.0625 57.9221V34.6206H0.03125V57.9221C0.03125 58.7302 0.352259 59.5052 0.923659 60.0766C1.49506 60.648 2.27004 60.969 3.07812 60.969H30.5Z" fill="url(#paint1_linear_80_551)"/>
<path d="M5.10938 22.375H13.2344C13.5037 22.375 13.7621 22.268 13.9525 22.0775C14.143 21.8871 14.25 21.6287 14.25 21.3594V17.2969C14.25 17.0275 14.143 16.7692 13.9525 16.5787C13.7621 16.3883 13.5037 16.2812 13.2344 16.2812H5.10938C4.84001 16.2812 4.58169 16.3883 4.39122 16.5787C4.20075 16.7692 4.09375 17.0275 4.09375 17.2969V21.3594C4.09375 21.6287 4.20075 21.8871 4.39122 22.0775C4.58169 22.268 4.84001 22.375 5.10938 22.375ZM6.125 18.3125H12.2188V20.3438H6.125V18.3125Z" fill="url(#paint2_linear_80_551)"/>
<path d="M30.5 16.2812H28.4688V18.3125H30.5V16.2812Z" fill="url(#paint3_linear_80_551)"/>
<path d="M30.5 20.3438H28.4688V22.375H30.5V20.3438Z" fill="url(#paint4_linear_80_551)"/>
<path d="M34.5625 16.2812H32.5312V18.3125H34.5625V16.2812Z" fill="url(#paint5_linear_80_551)"/>
<path d="M34.5625 20.3438H32.5312V22.375H34.5625V20.3438Z" fill="url(#paint6_linear_80_551)"/>
<path d="M19.3281 22.375C19.9307 22.375 20.5198 22.1963 21.0209 21.8615C21.5219 21.5267 21.9125 21.0509 22.1431 20.4941C22.3737 19.9374 22.434 19.3247 22.3165 18.7337C22.1989 18.1427 21.9087 17.5998 21.4826 17.1737C21.0565 16.7475 20.5136 16.4574 19.9225 16.3398C19.3315 16.2222 18.7189 16.2826 18.1621 16.5132C17.6054 16.7438 17.1295 17.1343 16.7947 17.6354C16.4599 18.1364 16.2812 18.7255 16.2812 19.3281C16.2813 20.1362 16.6023 20.9112 17.1737 21.4826C17.7451 22.054 18.52 22.375 19.3281 22.375ZM19.3281 18.3125C19.529 18.3125 19.7254 18.3721 19.8924 18.4837C20.0594 18.5953 20.1896 18.7539 20.2664 18.9395C20.3433 19.125 20.3634 19.3293 20.3242 19.5263C20.285 19.7233 20.1883 19.9042 20.0463 20.0463C19.9042 20.1883 19.7233 20.285 19.5263 20.3242C19.3293 20.3634 19.125 20.3433 18.9395 20.2664C18.7539 20.1896 18.5953 20.0594 18.4837 19.8924C18.3721 19.7254 18.3125 19.529 18.3125 19.3281C18.3125 19.0588 18.4195 18.8004 18.61 18.61C18.8004 18.4195 19.0588 18.3125 19.3281 18.3125Z" fill="url(#paint7_linear_80_551)"/>
<path d="M26.4375 16.2812H24.4062V18.3125H26.4375V16.2812Z" fill="url(#paint8_linear_80_551)"/>
<path d="M26.4375 20.3438H24.4062V22.375H26.4375V20.3438Z" fill="url(#paint9_linear_80_551)"/>
<path d="M15.6716 49.9433C14.1058 49.1472 12.837 47.8695 12.0519 46.2982C11.9931 46.1777 11.9111 46.0701 11.8106 45.9815C11.7101 45.8929 11.593 45.8251 11.4661 45.7819C11.3393 45.7387 11.2051 45.7211 11.0714 45.73C10.9377 45.739 10.8071 45.7743 10.6871 45.8339C10.5671 45.8935 10.46 45.9763 10.3722 46.0775C10.2843 46.1787 10.2174 46.2963 10.1751 46.4234C10.1329 46.5506 10.1163 46.6849 10.1262 46.8185C10.1361 46.9522 10.1724 47.0825 10.2329 47.2021C11.2134 49.1652 12.7984 50.7616 14.7545 51.7562C14.9937 51.8677 15.2669 51.8817 15.5163 51.7952C15.7657 51.7088 15.9717 51.5286 16.0905 51.2929C16.2093 51.0572 16.2317 50.7845 16.153 50.5326C16.0742 50.2807 15.9004 50.0693 15.6685 49.9433H15.6716Z" fill="url(#paint10_linear_80_551)"/>
<path d="M23.7053 33.5204C23.4655 33.422 23.1972 33.419 22.9553 33.512C22.7134 33.6049 22.5162 33.7868 22.4041 34.0205C22.292 34.2541 22.2734 34.5217 22.3521 34.7686C22.4309 35.0155 22.601 35.223 22.8278 35.3485C24.7702 36.2833 26.2662 37.9457 26.9918 39.9757C27.0869 40.2223 27.2745 40.4222 27.5146 40.5328C27.7547 40.6434 28.0285 40.656 28.2778 40.5679C28.5271 40.4798 28.7322 40.298 28.8495 40.0612C28.9669 39.8243 28.9872 39.5509 28.9063 39.2993C28.0002 36.7638 26.1316 34.6875 23.7053 33.5204Z" fill="url(#paint11_linear_80_551)"/>
<path d="M59.953 40.6563H56.9061C56.9077 40.0299 56.7158 39.4184 56.3566 38.9052C55.9975 38.392 55.4886 38.0023 54.8996 37.7892C54.3106 37.5762 53.6701 37.5502 53.0658 37.7149C52.4615 37.8796 51.9228 38.2269 51.5233 38.7093C50.8139 38.5364 50.0656 38.6315 49.422 38.9764C49.1018 38.2662 48.5834 37.6635 47.9291 37.2408C47.2747 36.818 46.5123 36.5931 45.7332 36.5931C44.9542 36.5931 44.1917 36.818 43.5373 37.2408C42.883 37.6635 42.3646 38.2662 42.0445 38.9764C41.4009 38.6315 40.6526 38.5364 39.9431 38.7093C39.5434 38.2277 39.0049 37.8811 38.4009 37.7169C37.797 37.5527 37.1571 37.5789 36.5685 37.7918C35.98 38.0048 35.4715 38.3941 35.1124 38.9068C34.7534 39.4194 34.5613 40.0304 34.5624 40.6563H33.3873C32.9094 37.3451 31.2792 34.3085 28.7836 32.0806C26.2879 29.8526 23.0866 28.576 19.7426 28.4752C16.3987 28.3744 13.1263 29.456 10.501 31.5296C7.87574 33.6033 6.06571 36.5362 5.38928 39.8126C4.71286 43.0889 5.21335 46.4989 6.80275 49.4427C8.39215 52.3865 10.9686 54.6756 14.0791 55.9074C17.1895 57.1392 20.6347 57.2347 23.8086 56.1773C26.9826 55.1199 29.682 52.9771 31.4322 50.126L32.5372 60.0649C32.5647 60.3134 32.6829 60.543 32.8692 60.7098C33.0555 60.8766 33.2967 60.9688 33.5467 60.9688H50.8773V58.9375H34.4608L33.0389 46.1813V46.1742L32.6499 42.6875H34.5624V51.8282C34.5624 52.0975 34.6694 52.3559 34.8598 52.5463C35.0503 52.7368 35.3086 52.8438 35.578 52.8438H39.6405C39.9098 52.8438 40.1682 52.7368 40.3586 52.5463C40.5491 52.3559 40.6561 52.0975 40.6561 51.8282V48.7813H42.6874C42.9567 48.7813 43.215 48.6743 43.4055 48.4838C43.596 48.2934 43.703 48.035 43.703 47.7657V42.6875H47.7655V47.7657C47.7655 48.035 47.8725 48.2934 48.0629 48.4838C48.2534 48.6743 48.5117 48.7813 48.7811 48.7813H50.8124V51.8282C50.8124 52.0975 50.9194 52.3559 51.1098 52.5463C51.3003 52.7368 51.5586 52.8438 51.828 52.8438H55.8905C56.1598 52.8438 56.4182 52.7368 56.6086 52.5463C56.7991 52.3559 56.9061 52.0975 56.9061 51.8282V42.6875H58.8185L57.0077 58.9375H52.8436V60.9688H57.9217C58.1718 60.9688 58.413 60.8766 58.5993 60.7098C58.7855 60.543 58.9038 60.3134 58.9313 60.0649L60.9625 41.7836C60.9782 41.6417 60.9638 41.498 60.9202 41.362C60.8767 41.226 60.8049 41.1008 60.7096 40.9944C60.6144 40.888 60.4977 40.8029 60.3674 40.7446C60.237 40.6864 60.0958 40.6563 59.953 40.6563ZM19.328 54.875C17.0027 54.8756 14.7258 54.211 12.7659 52.9596C10.8061 51.7082 9.24517 49.9222 8.26735 47.8125C7.28954 45.7028 6.93566 43.3574 7.24749 41.0532C7.55932 38.7489 8.52383 36.5819 10.0272 34.808C11.5306 33.034 13.51 31.7272 15.732 31.0417C17.9539 30.3562 20.3256 30.3206 22.5671 30.9392C24.8086 31.5578 26.8263 32.8047 28.3822 34.5328C29.9381 36.2608 30.9671 38.3979 31.3479 40.6918C31.1225 40.7232 30.9147 40.8307 30.7588 40.9965C30.6636 41.1029 30.5918 41.2281 30.5482 41.3641C30.5047 41.5001 30.4903 41.6437 30.5059 41.7857L30.9965 46.1996C30.2355 48.7037 28.6914 50.8977 26.5912 52.4592C24.4909 54.0208 21.9451 54.8675 19.328 54.875ZM41.6717 46.75H39.6405C39.3711 46.75 39.1128 46.857 38.9223 47.0475C38.7319 47.238 38.6249 47.4963 38.6249 47.7657V50.8125H36.5936V40.6563C36.5984 40.4197 36.6856 40.1922 36.8402 40.013C36.9948 39.8339 37.2072 39.7144 37.4405 39.6751C37.6739 39.6359 37.9137 39.6793 38.1184 39.798C38.3231 39.9167 38.48 40.1032 38.5619 40.3252C38.6132 40.4715 38.6973 40.604 38.8077 40.7128C38.9182 40.8215 39.0521 40.9036 39.1991 40.9526C39.3462 41.0016 39.5025 41.0163 39.6561 40.9956C39.8097 40.9749 39.9565 40.9192 40.0853 40.833C40.2379 40.7293 40.4159 40.6692 40.6001 40.659C40.7843 40.6488 40.9678 40.689 41.1309 40.7752C41.294 40.8615 41.4305 40.9905 41.5258 41.1485C41.6211 41.3065 41.6715 41.4874 41.6717 41.6719V46.75ZM45.7342 38.625C46.2729 38.625 46.7896 38.839 47.1705 39.22C47.5515 39.6009 47.7655 40.1176 47.7655 40.6563H43.703C43.703 40.1176 43.917 39.6009 44.2979 39.22C44.6788 38.839 45.1955 38.625 45.7342 38.625ZM54.8749 50.8125H52.8436V47.7657C52.8436 47.4963 52.7366 47.238 52.5461 47.0475C52.3557 46.857 52.0973 46.75 51.828 46.75H49.7967V41.6719C49.7967 41.4877 49.8468 41.307 49.9415 41.1491C50.0363 40.9912 50.1723 40.862 50.3348 40.7754C50.4974 40.6888 50.6804 40.648 50.8644 40.6575C51.0483 40.6669 51.2262 40.7262 51.3791 40.8289C51.508 40.9162 51.6553 40.9726 51.8095 40.9939C51.9637 41.0152 52.1207 41.0007 52.2684 40.9516C52.4162 40.9025 52.5506 40.8201 52.6615 40.7108C52.7723 40.6015 52.8565 40.4682 52.9076 40.3211C52.9901 40.0995 53.1474 39.9136 53.3522 39.7955C53.5572 39.6774 53.7968 39.6345 54.03 39.6742C54.2631 39.714 54.4751 39.8338 54.6293 40.0131C54.7836 40.1923 54.8704 40.4198 54.8749 40.6563V50.8125Z" fill="url(#paint12_linear_80_551)"/>
<defs>
<linearGradient id="paint0_linear_80_551" x1="21.5335" y1="0.03125" x2="21.2217" y2="35.5786" gradientUnits="userSpaceOnUse">
<stop stop-color="#890E4F"/>
<stop offset="1" stop-color="#D92584" stop-opacity="0.6"/>
</linearGradient>
<linearGradient id="paint1_linear_80_551" x1="17.0067" y1="34.6206" x2="16.7897" y2="60.9696" gradientUnits="userSpaceOnUse">
<stop stop-color="#890E4F"/>
<stop offset="1" stop-color="#D92584" stop-opacity="0.6"/>
</linearGradient>
<linearGradient id="paint2_linear_80_551" x1="9.75223" y1="16.2812" x2="9.71741" y2="22.3754" gradientUnits="userSpaceOnUse">
<stop stop-color="#890E4F"/>
<stop offset="1" stop-color="#D92584" stop-opacity="0.6"/>
</linearGradient>
<linearGradient id="paint3_linear_80_551" x1="29.6004" y1="16.2812" x2="29.5811" y2="18.3125" gradientUnits="userSpaceOnUse">
<stop stop-color="#890E4F"/>
<stop offset="1" stop-color="#D92584" stop-opacity="0.6"/>
</linearGradient>
<linearGradient id="paint4_linear_80_551" x1="29.6004" y1="20.3437" x2="29.5811" y2="22.375" gradientUnits="userSpaceOnUse">
<stop stop-color="#890E4F"/>
<stop offset="1" stop-color="#D92584" stop-opacity="0.6"/>
</linearGradient>
<linearGradient id="paint5_linear_80_551" x1="33.6629" y1="16.2812" x2="33.6436" y2="18.3125" gradientUnits="userSpaceOnUse">
<stop stop-color="#890E4F"/>
<stop offset="1" stop-color="#D92584" stop-opacity="0.6"/>
</linearGradient>
<linearGradient id="paint6_linear_80_551" x1="33.6629" y1="20.3437" x2="33.6436" y2="22.375" gradientUnits="userSpaceOnUse">
<stop stop-color="#890E4F"/>
<stop offset="1" stop-color="#D92584" stop-opacity="0.6"/>
</linearGradient>
<linearGradient id="paint7_linear_80_551" x1="19.6763" y1="16.2812" x2="19.6183" y2="22.375" gradientUnits="userSpaceOnUse">
<stop stop-color="#890E4F"/>
<stop offset="1" stop-color="#D92584" stop-opacity="0.6"/>
</linearGradient>
<linearGradient id="paint8_linear_80_551" x1="25.5379" y1="16.2812" x2="25.5186" y2="18.3125" gradientUnits="userSpaceOnUse">
<stop stop-color="#890E4F"/>
<stop offset="1" stop-color="#D92584" stop-opacity="0.6"/>
</linearGradient>
<linearGradient id="paint9_linear_80_551" x1="25.5379" y1="20.3437" x2="25.5186" y2="22.375" gradientUnits="userSpaceOnUse">
<stop stop-color="#890E4F"/>
<stop offset="1" stop-color="#D92584" stop-opacity="0.6"/>
</linearGradient>
<linearGradient id="paint10_linear_80_551" x1="13.5085" y1="45.7278" x2="13.4497" y2="51.8513" gradientUnits="userSpaceOnUse">
<stop stop-color="#890E4F"/>
<stop offset="1" stop-color="#D92584" stop-opacity="0.6"/>
</linearGradient>
<linearGradient id="paint11_linear_80_551" x1="26.0096" y1="33.4443" x2="25.9358" y2="40.6258" gradientUnits="userSpaceOnUse">
<stop stop-color="#890E4F"/>
<stop offset="1" stop-color="#D92584" stop-opacity="0.6"/>
</linearGradient>
<linearGradient id="paint12_linear_80_551" x1="36.2249" y1="28.4687" x2="36.0448" y2="60.9707" gradientUnits="userSpaceOnUse">
<stop stop-color="#890E4F"/>
<stop offset="1" stop-color="#D92584" stop-opacity="0.6"/>
</linearGradient>
</defs>
</svg>
