<svg width="57" height="63" viewBox="0 0 57 63" fill="none" xmlns="http://www.w3.org/2000/svg">
<path d="M51.8594 50.7969H43.3769L43.4967 48.7656H52.875C53.1443 48.7656 53.4027 48.6586 53.5931 48.4681C53.7836 48.2777 53.8906 48.0193 53.8906 47.75V43.6875C53.8906 43.4182 53.7836 43.1598 53.5931 42.9694C53.4027 42.7789 53.1443 42.6719 52.875 42.6719H43.8552L44.6921 28.4531H45.7656C46.035 28.4531 46.2933 28.3461 46.4838 28.1556C46.6742 27.9652 46.7812 27.7068 46.7812 27.4375V23.375C46.7812 23.1057 46.6742 22.8473 46.4838 22.6569C46.2933 22.4664 46.035 22.3594 45.7656 22.3594H39.6343C39.4609 19.8611 38.6382 17.4515 37.2476 15.3688L35.6094 12.9141V9.84688L37.1704 9.22227C37.9651 11.464 39.5989 13.3095 41.7275 14.3705L45.3116 16.1641C45.5188 16.2675 45.7551 16.297 45.9812 16.2478C46.2074 16.1985 46.41 16.0734 46.5555 15.8933C46.7009 15.7131 46.7804 15.4887 46.7808 15.2572C46.7812 15.0256 46.7025 14.801 46.5578 14.6203L45.6681 13.5031C44.1556 11.6116 43.1834 9.34577 42.8548 6.94625L45.1268 6.03727C45.3154 5.96191 45.4771 5.83172 45.591 5.66354C45.7049 5.49534 45.7657 5.29686 45.7656 5.09375V1.03125C45.7656 0.761886 45.6586 0.503562 45.4681 0.313091C45.2777 0.122631 45.0193 0.015625 44.75 0.015625H23.4219C23.1525 0.015625 22.8942 0.122631 22.7037 0.313091C22.5133 0.503562 22.4062 0.761886 22.4062 1.03125V8.14062C22.4064 8.36717 22.4821 8.5872 22.6216 8.7657C22.7611 8.94421 22.9563 9.07096 23.1761 9.12578L26.4688 9.94844V12.5891C24.9441 13.3307 23.6592 14.4868 22.7611 15.9248C21.863 17.3628 21.3881 19.0247 21.3906 20.7202V22.3594H15.9245L8.77961 8.07055C8.36777 7.24465 7.6483 6.61333 6.77578 6.31232C5.9034 6.0113 4.94769 6.06463 4.11416 6.46083C3.28064 6.85705 2.63586 7.56449 2.31844 8.43108C2.00102 9.29773 2.03631 10.2542 2.41672 11.0951L7.6157 22.3594H1.07812C0.808761 22.3594 0.550437 22.4664 0.359966 22.6569C0.169506 22.8473 0.0625 23.1057 0.0625 23.375V27.4375C0.0625 27.7068 0.169506 27.9652 0.359966 28.1556C0.550437 28.3461 0.808761 28.4531 1.07812 28.4531H2.15164L3.88836 57.9733C3.96958 59.3282 4.56471 60.6012 5.55235 61.5324C6.53995 62.4637 7.84574 62.983 9.20312 62.9844H55.9219C56.1912 62.9844 56.4496 62.8773 56.64 62.6869C56.8305 62.4965 56.9375 62.2381 56.9375 61.9688V55.875C56.9359 54.5287 56.4003 53.238 55.4484 52.286C54.4963 51.334 53.2057 50.7985 51.8594 50.7969ZM54.7194 54.8594H32.7494C32.9587 54.2674 33.3457 53.7545 33.8577 53.3909C34.3697 53.0273 34.9814 52.8308 35.6094 52.8281H51.8594C52.4873 52.8308 53.099 53.0273 53.611 53.3909C54.123 53.7545 54.5101 54.2674 54.7194 54.8594ZM38.6562 58.9219V60.9531H36.625V56.8906H42.7188V60.9531H40.6875V58.9219H38.6562ZM32.5625 56.8906H34.5938V60.9531H32.5625V56.8906ZM44.75 56.8906H46.7812V60.9531H44.75V56.8906ZM41.3426 50.7969H36.8119C37.0212 50.2049 37.4082 49.692 37.9202 49.3284C38.4322 48.9648 39.0439 48.7683 39.6719 48.7656H41.4624L41.3426 50.7969ZM51.8594 46.7344H39.6719C38.4866 46.7365 37.3394 47.1531 36.429 47.9122C35.5186 48.6712 34.9024 49.7248 34.6872 50.8903C33.9146 51.0363 33.1869 51.3611 32.5625 51.8389V51.8125C32.5649 49.9277 33.3147 48.1208 34.6475 46.7881C35.9802 45.4553 37.7871 44.7056 39.6719 44.7031H51.8594V46.7344ZM44.75 26.4219H29.9371L29.5156 26.0004V24.3906H44.75V26.4219ZM23.4219 29.4688V41.6562C23.4219 41.9256 23.3148 42.184 23.1244 42.3744C22.934 42.5648 22.6756 42.6719 22.4062 42.6719C22.1369 42.6719 21.8785 42.5648 21.6881 42.3744C21.4977 42.184 21.3906 41.9256 21.3906 41.6562V29.4688H19.3594V39.625C19.3594 39.8943 19.2523 40.1527 19.0619 40.3431C18.8715 40.5336 18.6131 40.6406 18.3438 40.6406C18.0744 40.6406 17.816 40.5336 17.6256 40.3431C17.4352 40.1527 17.3281 39.8943 17.3281 39.625V29.4688H15.2969V37.5938C15.2969 37.8631 15.1898 38.1215 14.9994 38.3119C14.809 38.5023 14.5506 38.6094 14.2812 38.6094C14.0119 38.6094 13.7535 38.5023 13.5631 38.3119C13.3727 38.1215 13.2656 37.8631 13.2656 37.5938V24.3906H27.4844V26.4219C27.4845 26.6912 27.5914 26.9495 27.782 27.1399L34.2606 33.6196C34.4742 33.8332 34.5943 34.123 34.5943 34.425C34.5943 34.727 34.4742 35.0168 34.2606 35.2304C34.047 35.444 33.7573 35.564 33.4552 35.564C33.1532 35.564 32.8634 35.444 32.6498 35.2304L29.218 31.7986C29.0761 31.6566 28.8952 31.56 28.6984 31.5208C28.5014 31.4816 28.2974 31.5016 28.1118 31.5783C27.9263 31.6551 27.7677 31.7851 27.656 31.9519C27.5444 32.1187 27.4846 32.3148 27.4844 32.5156V39.625C27.4844 39.8943 27.3773 40.1527 27.1869 40.3431C26.9965 40.5336 26.7381 40.6406 26.4688 40.6406C26.1994 40.6406 25.941 40.5336 25.7506 40.3431C25.5602 40.1527 25.4531 39.8943 25.4531 39.625V29.4688H23.4219ZM33.5781 12.2031H28.5V10.1719H33.5781V12.2031ZM42.5837 12.523C40.9245 11.6813 39.6586 10.2262 39.0544 8.46664L40.9241 7.71812C41.207 9.40071 41.7678 11.0245 42.5837 12.523ZM24.4375 2.04688H43.7344V4.40617L34.3977 8.14062H27.6073L24.4375 7.34742V2.04688ZM23.4219 20.7191C23.4176 19.3388 23.8199 17.9878 24.5785 16.8346C25.337 15.6814 26.4183 14.777 27.6875 14.2344H34.0514L35.5586 16.4962C36.726 18.2452 37.4271 20.2633 37.5959 22.3594H23.4219V20.7191ZM4.26211 10.243C4.15742 10.0172 4.11134 9.76877 4.12814 9.52045C4.14495 9.27223 4.22407 9.0322 4.35822 8.82263C4.49237 8.61305 4.6772 8.44069 4.89562 8.32149C5.11404 8.20227 5.35898 8.14008 5.60781 8.14062C5.88938 8.13968 6.16559 8.21769 6.40508 8.3658C6.64456 8.5139 6.83773 8.72617 6.96266 8.97852L13.6536 22.3594H9.85313L4.26211 10.243ZM2.09375 24.3906H11.2344V26.4219H2.09375V24.3906ZM5.91555 57.8534L4.18594 28.4531H11.2344V37.5938C11.2344 38.0908 11.356 38.5803 11.5886 39.0196C11.8213 39.4588 12.1578 39.8345 12.569 40.1139C12.9801 40.3932 13.4533 40.5677 13.9474 40.6222C14.4415 40.6767 14.9414 40.6094 15.4035 40.4263C15.5162 40.8399 15.715 41.2251 15.9867 41.5566C16.2585 41.8882 16.5972 42.1587 16.9806 42.3503C17.364 42.5421 17.7835 42.6507 18.2118 42.6692C18.6401 42.6876 19.0675 42.6156 19.466 42.4576C19.6414 43.103 20.0244 43.6729 20.5557 44.0791C21.0871 44.4853 21.7374 44.7055 22.4062 44.7055C23.0751 44.7055 23.7254 44.4853 24.2568 44.0791C24.7881 43.6729 25.1711 43.103 25.3465 42.4576C25.7037 42.5994 26.0844 42.6721 26.4688 42.6719C27.2768 42.6719 28.0518 42.3508 28.6232 41.7794C29.1946 41.2081 29.5156 40.433 29.5156 39.625V34.9673L31.2138 36.6655C31.8082 37.2599 32.6145 37.594 33.4552 37.594C34.296 37.594 35.1023 37.2599 35.6967 36.6655C36.2912 36.071 36.6252 35.2647 36.6252 34.424C36.6252 33.5833 36.2912 32.7769 35.6967 32.1825L31.9684 28.4531H42.6578L41.8209 42.6719H39.6719C37.2485 42.6745 34.925 43.6384 33.2115 45.3521C31.4978 47.0657 30.5339 49.3891 30.5312 51.8125V60.9531H9.20312C8.36351 60.952 7.55598 60.6308 6.94509 60.0548C6.33419 59.4788 5.96597 58.6915 5.91555 57.8534ZM52.875 60.9531V58.9219H50.8438V60.9531H48.8125V56.8906H54.9062V60.9531H52.875Z" fill="url(#paint0_linear_80_505)"/>
<defs>
<linearGradient id="paint0_linear_80_505" x1="31.75" y1="0.015625" x2="31.0861" y2="62.9831" gradientUnits="userSpaceOnUse">
<stop stop-color="#890E4F"/>
<stop offset="1" stop-color="#D92584" stop-opacity="0.6"/>
</linearGradient>
</defs>
</svg>
